<?xml version="1.0" encoding="UTF-8"?>
<svg version="1.1" xmlns="http://www.w3.org/2000/svg" width="499" height="500">
<path d="M0 0 C164.67 0 329.34 0 499 0 C499 165 499 330 499 500 C334.33 500 169.66 500 0 500 C0 335 0 170 0 0 Z " fill="#080808" transform="translate(0,0)"/>
<path d="M0 0 C164.67 0 329.34 0 499 0 C499 165 499 330 499 500 C334.33 500 169.66 500 0 500 C0 335 0 170 0 0 Z M16.15625 27.15625 C13.48724289 31.41223431 12.74916189 35.06102219 12.73993778 40.05338573 C12.73287219 41.27636244 12.7258066 42.49933915 12.7185269 43.75937575 C12.72077817 45.11336244 12.72322466 46.46734881 12.72584534 47.82133484 C12.72139246 49.26220614 12.71607825 50.703075 12.70997661 52.14394027 C12.69579192 56.10390709 12.69413341 60.06379545 12.69457352 64.02378404 C12.69292571 68.29456416 12.67985983 72.56531192 12.66838074 76.83607483 C12.64552826 86.17499486 12.63760979 95.51389217 12.63255429 104.85283637 C12.62929742 110.68479549 12.62277497 116.516748 12.6155529 122.34870338 C12.59598628 138.49764512 12.57958256 154.64658073 12.57667637 170.79553509 C12.5764888 171.8290078 12.57630123 172.86248051 12.57610798 173.92727058 C12.57574173 176.02235242 12.57537803 178.11743425 12.57501686 180.21251609 C12.57483405 181.25251029 12.57465124 182.29250449 12.57446289 183.36401367 C12.57428234 184.40527823 12.57410179 185.44654279 12.57391577 186.51936082 C12.57037445 203.38997865 12.54335499 220.26046882 12.505965 237.13104238 C12.46787909 254.45434591 12.44851887 271.77758609 12.44821686 289.10093242 C12.44763233 298.82633636 12.43914366 308.55158801 12.41021919 318.27695274 C12.38570148 326.55868865 12.37842502 334.84021675 12.39346672 343.12197914 C12.40063416 347.34608565 12.39978559 351.56978185 12.37705612 355.79384232 C12.3564262 359.6648781 12.35910323 363.53518916 12.37993097 367.40621743 C12.38341827 368.8026082 12.37854799 370.19905168 12.36422653 371.59537335 C12.28307077 380.05688467 12.92211048 386.98398738 18 394 C23.9891509 399.65974381 29.51675068 402.25322609 37.8273468 402.24050903 C38.50132151 402.24221788 39.17529622 402.24392673 39.86969441 402.24568737 C42.12067705 402.24897305 44.37135943 402.237994 46.62231445 402.22705078 C48.23879489 402.22648647 49.85527584 402.22680362 51.47175598 402.22793579 C55.85566258 402.22850952 60.23945969 402.21675196 64.62334085 402.20278788 C69.20642304 402.19028386 73.78950775 402.18911028 78.37260437 402.18673706 C87.04937405 402.18052133 95.72609331 402.16410924 104.40284079 402.14403808 C114.28184272 402.12168199 124.16084707 402.11068638 134.039868 402.10064721 C154.35994013 402.07974311 174.67996689 402.0445653 195 402 C194.98334541 403.2445546 194.98334541 403.2445546 194.96635437 404.51425171 C194.86577737 412.36946659 194.78984592 420.2244623 194.74093914 428.0801754 C194.7149493 432.11802221 194.67974895 436.1553328 194.62280273 440.19287109 C194.56809916 444.09625064 194.53849983 447.99911754 194.52561378 451.9028511 C194.51644201 453.38510829 194.49853283 454.86734039 194.47134972 456.34937668 C194.30419012 465.84894666 194.74633912 474.31834307 201.51396179 481.63729858 C206.74862539 486.24376129 210.87113542 487.29679981 217.70278931 487.27415466 C218.4831934 487.27939134 219.2635975 487.28462802 220.0676502 487.29002339 C222.68528856 487.30503687 225.30273167 487.30572884 227.92041016 487.30639648 C229.79637991 487.31401727 231.67234653 487.32244463 233.54830933 487.33161926 C238.64776083 487.35358402 243.74715236 487.36236627 248.84664583 487.36744571 C252.03412748 487.37108811 255.2215934 487.37732769 258.40906906 487.3844471 C269.5339502 487.40895218 280.65878466 487.42199498 291.78369141 487.42553711 C302.14470416 487.42916924 312.5054201 487.45903884 322.86634219 487.50094169 C331.76672809 487.53567235 340.66701581 487.55108606 349.567469 487.55178314 C354.88088448 487.55257526 360.19399796 487.56128329 365.50734329 487.58978081 C370.50940665 487.61600757 375.51091867 487.61814081 380.51301956 487.60212517 C382.34392502 487.60031413 384.17486249 487.60697014 386.00569916 487.62294388 C399.91544179 488.03293338 399.91544179 488.03293338 412 482 C417.98271489 475.28632391 418.85732854 468.75047544 418.68115234 460.03271484 C418.6820285 458.88033325 418.68290466 457.72795166 418.68380737 456.54064941 C418.67965517 452.76336902 418.63311044 448.98790445 418.5859375 445.2109375 C418.57473707 442.57965057 418.56620089 439.94835107 418.56021118 437.31704712 C418.54164003 431.11927763 418.49251009 424.92215108 418.43211424 418.72466338 C418.36480598 411.6629884 418.33199945 404.60128102 418.30194163 397.53936458 C418.23940241 383.02591299 418.13402018 368.51296551 418 354 C418.88550537 353.88027832 419.77101074 353.76055664 420.68334961 353.63720703 C421.84874268 353.47075684 423.01413574 353.30430664 424.21484375 353.1328125 C425.36847412 352.97184082 426.52210449 352.81086914 427.71069336 352.64501953 C432.15468186 351.77357163 435.88240725 350.34182796 439 347 C441.99660712 341.85873184 443.89895237 336.630049 445.359375 330.88671875 C445.55347961 330.15048782 445.74758423 329.4142569 445.9475708 328.65571594 C446.35154382 327.11653705 446.75130962 325.5762481 447.14697266 324.03491211 C447.75356905 321.67360673 448.37373378 319.31617887 448.99609375 316.95898438 C449.38881012 315.45593517 449.78076488 313.95268672 450.171875 312.44921875 C450.44834869 311.39452644 450.44834869 311.39452644 450.73040771 310.31852722 C451.46152668 307.45719346 452 304.96727825 452 302 C452.97839844 302.01740234 452.97839844 302.01740234 453.9765625 302.03515625 C458.7761914 302.08470994 463.27784685 301.99413751 468 301 C467.83564453 301.804375 467.83564453 301.804375 467.66796875 302.625 C466.5044086 308.37658186 465.38956549 314.13645148 464.32373047 319.90698242 C463.47609413 324.49335674 462.59511187 329.07198302 461.6953125 333.6484375 C461.23422033 336.03642847 460.77328348 338.42444944 460.3125 340.8125 C460.0858667 341.94486084 459.8592334 343.07722168 459.62573242 344.24389648 C457.59577053 354.56471544 457.59577053 354.56471544 458 365 C459.20906468 366.84731521 459.20906468 366.84731521 461 368 C465.62489476 368.61383851 465.62489476 368.61383851 469.65652466 366.71104431 C471.96561708 363.77019432 472.2321259 360.10404288 472.8671875 356.50390625 C473.10727791 355.22431282 473.10727791 355.22431282 473.35221863 353.91886902 C473.87143911 351.13542111 474.37367929 348.34922269 474.875 345.5625 C475.22629711 343.65186451 475.57843281 341.74138301 475.93139648 339.83105469 C476.63482253 336.01304649 477.331111 332.193836 478.02197266 328.37353516 C478.75561047 324.3247552 479.50881601 320.28027031 480.27947998 316.23838806 C480.88175149 313.0770777 481.47126455 309.91338995 482.0625 306.75 C482.27825684 305.62924072 482.49401367 304.50848145 482.71630859 303.35375977 C484.23767932 296.10655944 484.23767932 296.10655944 483 289 C480.8745846 287.0631778 479.00534247 285.60465871 476.625 284.0625 C475.98578613 283.62776367 475.34657227 283.19302734 474.68798828 282.74511719 C470.26946422 279.76115018 465.75680214 276.92473447 461.234375 274.1015625 C454.13149554 269.48640652 447.25959241 264.52098888 440.33544922 259.64355469 C432.06409816 253.82265407 423.72722181 248.10765921 415.28588867 242.53613281 C414.69912354 242.14780273 414.1123584 241.75947266 413.5078125 241.359375 C412.95960846 240.9998172 412.41140442 240.6402594 411.84658813 240.26980591 C410 239 410 239 408.38395691 237.69204712 C404.10093182 234.2793101 401.286055 233.37919969 395.66796875 233.5390625 C394.91678268 233.55740143 394.16559662 233.57574036 393.39164734 233.59463501 C380.10633918 234.02706819 366.83031825 235.17636959 353.57971191 236.20123291 C350.55571048 236.43300301 347.53112382 236.65653846 344.50649738 236.87998009 C341.54355737 237.09969539 338.5809656 237.32384871 335.6184597 237.54933548 C334.22702757 237.65489389 332.8355113 237.75935065 331.44390297 237.86256027 C329.4848167 238.00870127 327.52621409 238.16128013 325.56762695 238.31396484 C324.46498001 238.39834808 323.36233307 238.48273132 322.22627258 238.56967163 C315.79513933 239.15495054 309.39683457 240.12299913 303 241 C303.00460896 239.95270281 303.00921793 238.90540562 303.01396656 237.82637215 C303.12502722 212.32832757 303.20715859 186.83031441 303.25906086 161.33207893 C303.28482839 149.00124636 303.31995145 136.67057368 303.37719727 124.33984375 C303.42707633 113.59077498 303.45930156 102.84182204 303.47044247 92.09264076 C303.47695352 86.40243621 303.49222662 80.71256298 303.52865028 75.02246475 C303.56268059 69.66264445 303.57303861 64.30329081 303.56553841 58.94337273 C303.56690979 56.98022739 303.57680006 55.01706586 303.59602737 53.05401421 C303.87845363 37.40150294 303.87845363 37.40150294 296.27370167 24.11505318 C289.51431131 17.49905145 281.56645127 16.55497924 272.5383606 16.60559082 C271.50952566 16.59949972 270.48069072 16.59340861 269.42067897 16.58713293 C265.98623115 16.57053421 262.55215535 16.57527439 259.11767578 16.58007812 C256.64998999 16.57273602 254.18230763 16.56414938 251.71463013 16.55441284 C245.7151783 16.53450868 239.71587176 16.52881537 233.7163998 16.53060073 C228.83775515 16.53191059 223.95914056 16.52809282 219.08050156 16.52067566 C217.67289794 16.51857637 216.26529432 16.51647877 214.85769069 16.51438284 C214.15699332 16.51333931 213.45629595 16.51229578 212.73436533 16.51122063 C199.49546132 16.49233667 186.25661278 16.49336285 173.0177009 16.50018996 C160.91954052 16.50576466 148.82159196 16.48493992 136.72348107 16.45182949 C124.28624481 16.41805642 111.84910992 16.40292861 99.41182697 16.40754652 C92.43518997 16.40978749 85.45874874 16.40460279 78.48215103 16.37965393 C71.920621 16.35638818 65.35945745 16.35926738 58.79789352 16.37958145 C56.39292305 16.38299095 53.98792289 16.37790513 51.58299255 16.36359787 C48.29335205 16.34538118 45.00520291 16.35817418 41.71560669 16.37854004 C40.76967309 16.36602219 39.82373949 16.35350434 38.84914124 16.34060717 C29.54451 16.46364171 22.04949435 19.89248371 16.15625 27.15625 Z " fill="#FEFEFE" transform="translate(0,0)"/>
<path d="M0 0 C29.72507739 -0.09040726 59.4501396 -0.16202857 89.1753246 -0.20426132 C92.68385921 -0.2092642 96.19239354 -0.21444149 99.70092773 -0.21972656 C100.74866619 -0.22130043 100.74866619 -0.22130043 101.81757108 -0.22290608 C113.13065769 -0.24031605 124.44366308 -0.27185697 135.75670149 -0.30861118 C147.36307967 -0.34600421 158.96941044 -0.36793292 170.57584602 -0.37635398 C177.09581302 -0.38157599 183.61559574 -0.39387867 190.13550377 -0.42292023 C196.26924593 -0.45002096 202.40272747 -0.45845571 208.53652382 -0.45243073 C210.79040568 -0.45353335 213.04429604 -0.46151874 215.29812622 -0.4768219 C218.37080083 -0.49666574 221.44248593 -0.4919592 224.5151825 -0.48101807 C225.85905904 -0.49849512 225.85905904 -0.49849512 227.2300846 -0.51632524 C231.05007801 -0.47945179 233.5611457 -0.20616576 237.05522156 1.43528748 C240.00041728 5.31931879 239.67701091 8.76128833 239.60127258 13.51641846 C239.60768077 14.9793732 239.60768077 14.9793732 239.61421841 16.47188258 C239.62247233 19.7489708 239.59492273 23.02478698 239.56762695 26.30175781 C239.56621701 28.64714528 239.56700741 30.99253496 239.56983948 33.33792114 C239.57127711 39.71370635 239.54183053 46.08902354 239.50696969 52.46469975 C239.47892444 58.45002471 239.47385672 64.43534991 239.46871033 70.42072806 C239.45776692 82.27601655 239.42449161 94.13113303 239.37719727 105.98632812 C239.33130278 117.50259541 239.29591037 129.01881598 239.2746582 140.53515625 C239.27334459 141.2450103 239.27203097 141.95486436 239.27067754 142.68622914 C239.26415236 146.24735527 239.25783382 149.80848172 239.25161803 153.3696084 C239.19978363 182.9131833 239.11134551 212.45658862 239 242 C238.05157227 242.01981934 237.10314453 242.03963867 236.12597656 242.06005859 C232.59967636 242.13825761 229.07379639 242.22495366 225.54785156 242.31738281 C224.02319342 242.35561266 222.49844693 242.390476 220.97363281 242.421875 C218.77897619 242.46765662 216.5849246 242.52562766 214.390625 242.5859375 C213.37165131 242.60326431 213.37165131 242.60326431 212.33209229 242.62094116 C208.7416264 242.73234916 206.06381512 243.05958376 203 245 C202.96241577 246.58252563 202.96241577 246.58252563 202.92407227 248.19702148 C202.83015891 252.09770628 202.72989966 255.99820625 202.62768555 259.89868164 C202.58427561 261.58939299 202.54260511 263.28014991 202.50268555 264.97094727 C202.44512906 267.39613606 202.38139351 269.82109415 202.31640625 272.24609375 C202.29969376 273.00651474 202.28298126 273.76693573 202.26576233 274.55039978 C202.11387171 279.88612829 202.11387171 279.88612829 201 281 C198.29535603 281.13572853 195.61275057 281.21068239 192.90625 281.24609375 C191.21874556 281.27907062 189.53124569 281.31228153 187.84375 281.34570312 C185.18232829 281.39284468 182.52091966 281.4371886 179.859375 281.47680664 C177.29145397 281.51693041 174.72394009 281.56841446 172.15625 281.62109375 C170.98382751 281.63371498 170.98382751 281.63371498 169.78771973 281.64659119 C163.63839788 281.78180001 156.70106195 281.95729371 151.66015625 285.76953125 C150.86931641 286.78080078 150.86931641 286.78080078 150.0625 287.8125 C149.51722656 288.47894531 148.97195312 289.14539063 148.41015625 289.83203125 C140.70508678 301.67777517 144.47063418 313.93970628 144 329 C99.45 329 54.9 329 9 329 C9 328.34 9 327.68 9 327 C10.03640625 326.93941406 11.0728125 326.87882812 12.140625 326.81640625 C13.51042873 326.73196629 14.88021975 326.64732003 16.25 326.5625 C16.93191406 326.52318359 17.61382812 326.48386719 18.31640625 326.44335938 C21.64448041 326.23333528 24.80255402 325.98065998 28 325 C28.34137711 318.87403266 28.34137711 318.87403266 27 313 C23.95236066 311.98412022 21.65281033 311.80195594 18.45703125 311.68359375 C17.48999268 311.64548584 16.5229541 311.60737793 15.52661133 311.56811523 C13.68812622 311.50346069 13.68812622 311.50346069 11.8125 311.4375 C7.914375 311.293125 4.01625 311.14875 0 311 C0.33 301.1 0.66 291.2 1 281 C22.45 281 43.9 281 66 281 C67.84206174 277.31587652 68.6705012 275.03636034 69 271 C68.34 269.35 67.68 267.7 67 266 C33.34 265.505 33.34 265.505 -1 265 C0 236 0 236 1 235 C3.09757006 234.86575098 5.19934839 234.79636666 7.30078125 234.75390625 C8.58791016 234.72103516 9.87503906 234.68816406 11.20117188 234.65429688 C13.25507881 234.60696505 15.30896167 234.56256783 17.36303711 234.52319336 C19.34246851 234.48335185 21.32164165 234.4312749 23.30078125 234.37890625 C24.48841064 234.3538501 25.67604004 234.32879395 26.8996582 234.30297852 C29.82353709 234.0172447 31.52904685 233.5256047 34 232 C34.08096803 230.54257537 34.13917774 229.08387193 34.1875 227.625 C34.22230469 226.81289063 34.25710937 226.00078125 34.29296875 225.1640625 C34.19628906 224.44992187 34.09960938 223.73578125 34 223 C30.34337096 220.56224731 27.50584571 220.65313456 23.26953125 220.5859375 C22.51911057 220.56657135 21.76868988 220.5472052 20.99552917 220.5272522 C18.60130133 220.46752541 16.20702523 220.42109935 13.8125 220.375 C12.1881302 220.3368138 10.56378052 220.29776169 8.93945312 220.2578125 C4.95979895 220.16182975 0.98004999 220.07777364 -3 220 C-1.68 219.67 -0.36 219.34 1 219 C0.88658509 216.51979503 0.75985314 214.04155031 0.625 211.5625 C0.5940625 210.85544922 0.563125 210.14839844 0.53125 209.41992188 C0.42719371 207.60760812 0.22080108 205.80182012 0 204 C-0.66 203.67 -1.32 203.34 -2 203 C71.26 202.67 144.52 202.34 220 202 C222.21560787 197.56878426 222.32256495 194.21594721 222.3359375 189.40234375 C222.3459227 188.15633141 222.3459227 188.15633141 222.35610962 186.88514709 C222.36621692 185.1326824 222.37092723 183.38017936 222.37060547 181.62768555 C222.37499068 178.94320818 222.41136135 176.26035979 222.44921875 173.57617188 C222.45508488 171.87240145 222.45905564 170.16862323 222.4609375 168.46484375 C222.48249405 167.26008644 222.48249405 167.26008644 222.50448608 166.0309906 C222.53724584 161.82089949 222.53724584 161.82089949 220.52170181 158.28958416 C216.82325057 156.39821694 213.22721365 156.57796192 209.16693115 156.60127258 C208.26513193 156.59462576 207.36333272 156.58797893 206.43420625 156.58113068 C203.40621876 156.56244761 200.37862457 156.56510956 197.35058594 156.56762695 C195.1825301 156.55861305 193.01447939 156.54828675 190.84643555 156.53674316 C184.95428498 156.50910353 179.06223093 156.49987917 173.17002392 156.49388909 C167.0146977 156.48452355 160.8594441 156.45832166 154.7041626 156.43388367 C143.04537373 156.39016486 131.3865989 156.36165094 119.72775292 156.33856028 C106.45580203 156.31153745 93.18392855 156.26762416 79.91202879 156.22227156 C52.60805865 156.12934819 25.30406567 156.05770268 -2 156 C-1.01 155.67 -0.02 155.34 1 155 C1 149.72 1 144.44 1 139 C3.00076347 138.99453156 3.00076347 138.99453156 5.04194641 138.98895264 C17.59403113 138.95205881 30.14586924 138.89434775 42.6977663 138.81609726 C49.15130463 138.77653823 55.60470479 138.74439108 62.05834961 138.72900391 C68.28304701 138.71389289 74.50736473 138.67954623 80.73189354 138.63169098 C83.11017754 138.61681975 85.48851574 138.60895572 87.86684608 138.60811615 C91.19069838 138.60576204 94.51348802 138.57880717 97.8371582 138.54589844 C98.8269014 138.5509288 99.81664459 138.55595917 100.83638 138.56114197 C101.74081848 138.54722916 102.64525696 138.53331635 103.57710266 138.51898193 C104.75653678 138.51345118 104.75653678 138.51345118 105.95979786 138.50780869 C108.15345552 138.14803735 108.15345552 138.14803735 109.75304222 136.24550343 C111.13410744 133.75850127 111.37483916 132.37483436 111.3742218 129.55296326 C111.38123611 128.6683139 111.38825043 127.78366455 111.39547729 126.87220764 C111.38783356 125.90947433 111.38018982 124.94674103 111.37231445 123.95483398 C111.37779045 122.42499878 111.37779045 122.42499878 111.38337708 120.86425781 C111.39148647 117.49136736 111.3778698 114.11895668 111.36328125 110.74609375 C111.36276273 108.40487163 111.36328011 106.06364906 111.36479187 103.72242737 C111.36470213 98.8156179 111.35426841 93.90897267 111.33618164 89.00219727 C111.31348206 82.70474327 111.31295251 76.40752908 111.31969929 70.11004543 C111.32303645 65.27600463 111.31641414 60.44201875 111.30657005 55.60798836 C111.30271434 53.2854955 111.30157137 50.96299654 111.3031559 48.64050102 C111.30352568 45.39880547 111.2909309 42.1574205 111.2746582 38.91577148 C111.27713562 37.95101395 111.27961304 36.98625641 111.28216553 35.99226379 C111.27508072 35.11043427 111.26799591 34.22860474 111.26069641 33.3200531 C111.25864354 32.55370765 111.25659067 31.78736219 111.25447559 30.99779415 C111.11025717 28.68317404 111.11025717 28.68317404 109 26 C106.98416402 25.55432026 106.98416402 25.55432026 104.62142944 25.63923645 C103.70153732 25.63511246 102.7816452 25.63098846 101.83387756 25.6267395 C100.31581764 25.64291824 100.31581764 25.64291824 98.76708984 25.65942383 C97.7036586 25.65898575 96.64022736 25.65854767 95.54457092 25.65809631 C92.01650873 25.66019254 88.48891705 25.68356328 84.9609375 25.70703125 C82.51999166 25.71262423 80.07904245 25.71689573 77.63809204 25.71989441 C71.20343785 25.73136661 64.76898577 25.76085435 58.33441162 25.79400635 C51.77244806 25.82465602 45.21045195 25.83838883 38.6484375 25.85351562 C25.76552177 25.88572171 12.88280928 25.93850913 0 26 C0 17.42 0 8.84 0 0 Z " fill="#D4E7E6" transform="translate(50,32)"/>
<path d="M0 0 C1.32866982 -0.01194629 1.32866982 -0.01194629 2.68418145 -0.02413392 C3.65304906 -0.01248255 4.62191666 -0.00083119 5.62014389 0.01117325 C6.65261678 0.00775555 7.68508968 0.00433785 8.74884963 0.00081658 C12.21922788 -0.00578828 15.688838 0.0162576 19.15914536 0.03808975 C21.64246223 0.03921766 24.12578043 0.03858548 26.60909653 0.03631973 C31.96100677 0.03540795 37.31267649 0.04677586 42.66452408 0.06927109 C50.40236189 0.10177411 58.14010537 0.11219634 65.87800404 0.11722305 C78.43205773 0.12597839 90.98600748 0.1526004 103.54000473 0.1904335 C115.73531194 0.22714744 127.93059092 0.25546221 140.12594223 0.27246475 C140.87761422 0.27351565 141.62928621 0.27456654 142.40373614 0.27564928 C146.17463938 0.28086941 149.94554283 0.28592425 153.7164464 0.29089689 C185.00178361 0.33236636 216.28699167 0.40311849 247.57223129 0.49219131 C247.57223129 0.82219131 247.57223129 1.15219131 247.57223129 1.49219131 C170.68223129 1.49219131 93.79223129 1.49219131 14.57223129 1.49219131 C14.57223129 10.07219131 14.57223129 18.65219131 14.57223129 27.49219131 C15.23223129 27.16219131 15.89223129 26.83219131 16.57223129 26.49219131 C17.99704092 26.39200164 19.42638015 26.35281262 20.85468674 26.34502029 C21.75341507 26.33786499 22.6521434 26.33070969 23.57810593 26.32333755 C25.06104393 26.3193042 25.06104393 26.3193042 26.57394028 26.31518936 C27.6130455 26.30861816 28.65215073 26.30204697 29.72274399 26.29527664 C33.17127167 26.27551804 36.61975581 26.2638771 40.06832504 26.25391006 C41.24323061 26.24983454 42.41813618 26.24575901 43.62864494 26.24155998 C49.84364396 26.22069119 56.05862082 26.20639132 62.27364731 26.1970253 C68.7080064 26.18594174 75.14202148 26.15152145 81.57625866 26.1118536 C86.51151317 26.08577418 91.44668451 26.07734133 96.38200188 26.07374382 C98.75476093 26.06885765 101.12751579 26.05718651 103.5002079 26.03870583 C106.81412981 26.01449265 110.12714547 26.01524661 113.44112778 26.02222061 C114.42772888 26.00941055 115.41432999 25.99660049 116.43082809 25.98340225 C117.33237625 25.99034607 118.23392441 25.99728989 119.16279221 26.00444412 C120.33832987 26.00086159 120.33832987 26.00086159 121.53761578 25.99720669 C123.57223129 26.49219131 123.57223129 26.49219131 125.32359123 28.24557686 C126.70221946 30.72607241 126.95096035 32.11096755 126.95991135 34.92576981 C126.96981598 35.80752884 126.97972061 36.68928787 126.98992538 37.59776688 C126.98542374 38.55735809 126.98092209 39.51694931 126.97628403 40.50561905 C126.98314728 41.5222966 126.99001053 42.53897415 126.99708176 43.58646011 C127.0153943 46.9497102 127.01150577 50.31249579 127.00582504 53.67578506 C127.01038472 56.01221748 127.01568965 58.34864856 127.02170944 60.68507767 C127.03064934 65.5834841 127.02820736 70.48172758 127.01827621 75.38013077 C127.00678617 81.65959361 127.02699467 87.93849416 127.05619335 94.21788311 C127.07453335 99.04344129 127.07426723 103.86886419 127.06855583 108.69444847 C127.06840235 111.00971706 127.07446916 113.32499467 127.08684731 115.64023018 C127.10171325 118.87696931 127.09111168 122.11266279 127.07394028 125.34936905 C127.08844223 126.78571953 127.08844223 126.78571953 127.10323715 128.25108719 C127.05937383 132.19658548 126.81038844 134.96096497 125.18314743 138.59064102 C121.0946546 141.56832178 117.2298535 141.14975941 112.29586411 141.05981827 C110.72953987 141.06091347 110.72953987 141.06091347 109.13157272 141.06203079 C105.67897277 141.05854647 102.22772066 141.01964316 98.77535629 140.98047256 C96.38211428 140.9711475 93.98886272 140.96402995 91.59560776 140.95903397 C85.29561654 140.93994032 78.99620139 140.89081798 72.69643784 140.83551407 C66.26839619 140.78437329 59.84026148 140.76153091 53.41207504 140.73633194 C40.79854064 140.68270247 28.18543386 140.59736016 15.57223129 140.49219131 C15.57223129 145.77219131 15.57223129 151.05219131 15.57223129 156.49219131 C16.68598224 156.49365788 17.79973318 156.49512444 18.94723415 156.49663544 C46.02924179 156.53320702 73.11112554 156.59262582 100.19303036 156.67609406 C113.28956626 156.7159278 126.3860417 156.74829827 139.48263168 156.76318741 C150.89570283 156.77618144 162.30864118 156.80308855 173.72163755 156.84680438 C179.76648623 156.86946972 185.8111708 156.88509895 191.85606575 156.88407516 C197.54338954 156.88333156 203.23034986 156.90116201 208.91757965 156.93335915 C211.00694942 156.94189166 213.09635981 156.94358548 215.18573952 156.937994 C218.03518746 156.93138307 220.88346908 156.94920503 223.73279953 156.97320938 C224.5625711 156.96544896 225.39234268 156.95768855 226.24725884 156.94969296 C230.14575878 157.00796587 232.15992323 157.24702688 235.58425999 159.28318787 C238.53016027 162.55662741 238.28966179 165.82823566 238.23629379 170.01953506 C238.24107742 170.84546661 238.24586105 171.67139816 238.25078964 172.52235794 C238.25418697 174.26647219 238.24499601 176.01065026 238.22408676 177.75464249 C238.19734906 180.41796067 238.22381855 183.07705206 238.25582504 185.74023819 C238.25252024 187.43751308 238.24611255 189.13478535 238.23629379 190.83203506 C238.24641495 191.62488403 238.2565361 192.417733 238.26696396 193.2346077 C238.24332275 194.35585793 238.24332275 194.35585793 238.21920395 195.49975967 C238.21522598 196.15165771 238.21124802 196.80355576 238.20714951 197.47520828 C237.14724134 200.84228256 235.30592151 202.30363712 232.57223129 204.49219131 C229.61229515 205.21980638 226.7312628 205.1703027 223.69483566 205.13142776 C222.80034912 205.13978344 221.90586259 205.14813912 220.98427039 205.156748 C217.98674603 205.17869671 214.9904446 205.165065 211.99288559 205.15161514 C209.84438267 205.1600668 207.69588741 205.17071019 205.54740524 205.18338394 C199.71307018 205.2115765 193.87910218 205.20905038 188.04471946 205.2010901 C181.9481065 205.19796927 175.85161133 205.22298701 169.75504684 205.24504471 C158.20958703 205.28252866 146.66424502 205.29463529 135.11873037 205.29766911 C121.97491399 205.30235521 108.83121597 205.33526416 95.68745172 205.37056696 C68.64905926 205.44255582 41.61071185 205.47902694 14.57223129 205.49219131 C15.06723129 206.48219131 15.06723129 206.48219131 15.57223129 207.49219131 C15.64315971 209.69948361 15.65638154 211.90886584 15.63473129 214.11719131 C15.62570786 215.30570694 15.61668442 216.49422256 15.60738754 217.71875381 C15.59578598 218.63398819 15.58418442 219.54922256 15.57223129 220.49219131 C16.46007309 220.50677383 17.34791489 220.52135635 18.26266098 220.53638077 C21.56551091 220.59753665 24.86754044 220.6717051 28.16988754 220.75464249 C29.59751044 220.78783925 31.02526292 220.81588762 32.45309067 220.83862686 C34.50898944 220.87227144 36.56370641 220.92458693 38.61910629 220.98047256 C39.85499496 221.00665665 41.09088364 221.03284073 42.36422348 221.05981827 C45.74998866 221.51614933 47.18167403 222.09871741 49.57223129 224.49219131 C50.13863754 226.64844131 50.13863754 226.64844131 50.13473129 228.99219131 C50.15664536 229.76562881 50.17855942 230.53906631 50.20113754 231.33594131 C49.57223129 233.49219131 49.57223129 233.49219131 47.45992661 235.09497452 C44.02278837 236.7580403 41.54921303 236.9200111 37.74020004 237.00391006 C36.44791489 237.03935928 35.15562973 237.0748085 33.82418442 237.11133194 C32.46937195 237.13442813 31.11455411 237.15721067 29.75973129 237.17969131 C28.38535013 237.21288893 27.01099958 237.24738085 25.63668442 237.28320694 C22.28215522 237.36559888 18.92720638 237.43057366 15.57223129 237.49219131 C15.24223129 246.73219131 14.91223129 255.97219131 14.57223129 265.49219131 C17.49437485 265.50620987 17.49437485 265.50620987 20.47555161 265.52051163 C26.91384318 265.55604004 33.35177948 265.60983832 39.78982544 265.67609406 C43.6930598 265.71559478 47.5960677 265.74777021 51.49947739 265.76318741 C55.26691539 265.77833739 59.03373092 265.81275204 62.80089188 265.86050034 C64.23773156 265.87533152 65.6746601 265.88323333 67.11157608 265.88407516 C69.12493377 265.88644095 71.13820498 265.91578197 73.15133286 265.94629288 C74.29716843 265.95517532 75.443004 265.96405777 76.62356186 265.97320938 C80.21037852 266.60450871 81.36868789 267.64613329 83.57223129 270.49219131 C84.57223129 273.36719131 84.57223129 273.36719131 84.57223129 276.49219131 C82.97353745 279.64493179 82.97353745 279.64493179 80.57223129 282.49219131 C77.62356186 283.21371841 77.62356186 283.21371841 74.15133286 283.17334366 C72.8502861 283.17289047 71.54923935 283.17243729 70.20876694 283.17197037 C68.79344933 283.14133243 67.37814584 283.11003649 65.96285629 283.07812881 C64.51127501 283.06693357 63.05967101 283.05839492 61.60805893 283.0524025 C57.79341298 283.02952883 53.98014501 282.97062188 50.16604233 282.90417862 C45.58661502 282.83191141 41.00672605 282.8044427 36.42689133 282.76945877 C29.4743806 282.71133746 22.52489116 282.59636546 15.57223129 282.49219131 C15.57223129 292.06219131 15.57223129 301.63219131 15.57223129 311.49219131 C22.96107344 311.74137572 22.96107344 311.74137572 30.35055161 311.97021866 C31.27448715 312.00582901 32.1984227 312.04143936 33.15035629 312.07812881 C34.09298325 312.10954971 35.0356102 312.14097061 36.00680161 312.17334366 C38.69675028 312.50766731 40.36177447 312.92166994 42.57223129 314.49219131 C44.34495857 322.94673677 44.34495857 322.94673677 42.57223129 326.49219131 C38.92482679 329.03900743 35.08786212 328.72201778 30.82223129 328.61719131 C30.12484848 328.60816788 29.42746567 328.59914444 28.70895004 328.58984756 C26.99656172 328.56639019 25.28435125 328.53052236 23.57223129 328.49219131 C23.57223129 329.15219131 23.57223129 329.81219131 23.57223129 330.49219131 C68.12223129 330.49219131 112.67223129 330.49219131 158.57223129 330.49219131 C158.57223129 319.93219131 158.57223129 309.37219131 158.57223129 298.49219131 C158.90223129 298.49219131 159.23223129 298.49219131 159.57223129 298.49219131 C159.57223129 317.96219131 159.57223129 337.43219131 159.57223129 357.49219131 C138.66678929 357.55989591 117.76143597 357.61516588 96.85591221 357.64762783 C87.14925145 357.66310068 77.44266361 357.68419821 67.73604965 357.71850967 C59.27635913 357.7483992 50.81672141 357.76776328 42.35697955 357.7744568 C37.87706159 357.77836981 33.39729472 357.78757464 28.91742516 357.80938148 C24.70102784 357.82973958 20.4848439 357.83602649 16.2684021 357.83151436 C14.72082294 357.83233986 13.17323666 357.83830962 11.6257 357.84980774 C9.51210015 357.86474173 7.3993051 357.86114224 5.28568649 357.85295486 C4.10302609 357.85572024 2.9203657 357.85848562 1.7018671 357.8613348 C-1.79364612 357.44903573 -3.63426269 356.60112173 -6.42776871 354.49219131 C-8.72669091 351.04380801 -8.67959269 349.7761136 -8.68503761 345.71499348 C-8.69148651 344.50274886 -8.6979354 343.29050425 -8.70457971 342.04152495 C-8.70163718 340.68931033 -8.69850172 339.33709613 -8.69519424 337.98488235 C-8.69892875 336.55383579 -8.70352947 335.12279126 -8.70892489 333.69174999 C-8.72119489 329.74988111 -8.72088974 325.80809684 -8.71853614 321.8662132 C-8.71812898 317.61869258 -8.72915735 313.37119946 -8.73865128 309.12369156 C-8.75528373 300.79880149 -8.76076182 292.47393974 -8.76187603 284.14903445 C-8.76282537 277.38473796 -8.7669299 270.62045083 -8.77327728 263.8561573 C-8.79089518 244.69201729 -8.8001152 225.52789971 -8.79861633 206.36375154 C-8.79853642 205.33001118 -8.79845651 204.29627081 -8.79837418 203.23120499 C-8.79829241 202.19620741 -8.79821065 201.16120983 -8.79812641 200.09484868 C-8.79731317 183.31383371 -8.816459 166.53290842 -8.84465091 149.7519194 C-8.87334786 132.53492976 -8.88719299 115.31798391 -8.88546336 98.10096973 C-8.88479839 88.42940831 -8.89033734 78.75794092 -8.91181946 69.08640099 C-8.92998929 60.85313877 -8.93441324 52.62001322 -8.92080061 44.38673968 C-8.91424986 40.18369955 -8.91422921 35.98092192 -8.93150711 31.77790642 C-8.94715039 27.93309327 -8.94446481 24.08875267 -8.92693885 20.24395167 C-8.92384953 18.85030305 -8.92757349 17.45661991 -8.938659 16.06301195 C-8.95269595 14.17379849 -8.93984978 12.28444176 -8.92554665 10.39523029 C-8.92598138 9.34427176 -8.92641612 8.29331322 -8.92686403 7.21050745 C-7.9940362 2.12987287 -5.03001407 -0.01000003 0 0 Z " fill="#86DCF1" transform="translate(35.42776870727539,30.507808685302734)"/>
<path d="M0 0 C0.66 0 1.32 0 2 0 C2.33 1.051875 2.66 2.10375 3 3.1875 C4.49233333 7.21679999 6.56728016 10.63166945 8.875 14.25 C11.99943962 19.15822595 14.39118891 24.04530059 16.5078125 29.4609375 C18.55125207 34.30741983 20.89263894 38.98728855 23.25 43.6875 C23.69907715 44.58605713 24.1481543 45.48461426 24.61083984 46.41040039 C26.42695954 50.46283874 26.42695954 50.46283874 29 54 C31.88252645 54.16023562 34.74378527 54.25954029 37.62890625 54.31640625 C38.49313705 54.33718735 39.35736786 54.35796844 40.24778748 54.37937927 C43.01927445 54.44497114 45.79085921 54.50380418 48.5625 54.5625 C50.43685923 54.60567608 52.31120843 54.64929006 54.18554688 54.69335938 C58.79026336 54.80066227 63.39507858 54.90190215 68 55 C68.06058594 55.81984375 68.12117188 56.6396875 68.18359375 57.484375 C68.26738281 58.56203125 68.35117187 59.6396875 68.4375 60.75 C68.51871094 61.81734375 68.59992188 62.8846875 68.68359375 63.984375 C69.04411825 67.56327064 69.04411825 67.56327064 70 71 C72.40952023 72.24714403 72.40952023 72.24714403 75 73 C75.66 73.33 76.32 73.66 77 74 C79.99205589 74.1359514 82.95961871 74.21279625 85.953125 74.23828125 C86.84610291 74.246353 87.73908081 74.25442474 88.65911865 74.26274109 C90.55218563 74.2765857 92.44527762 74.28730616 94.33837891 74.29516602 C97.2247701 74.3123498 100.11000722 74.35622842 102.99609375 74.40039062 C104.83592908 74.4105202 106.67577415 74.41903547 108.515625 74.42578125 C109.80499969 74.45204338 109.80499969 74.45204338 111.12042236 74.47883606 C116.56624722 74.45926203 119.70418744 73.66585393 124 70 C124.99 68.515 124.99 68.515 126 67 C126.66 67 127.32 67 128 67 C128 63.04 128 59.08 128 55 C129.13018555 55.00112793 130.26037109 55.00225586 131.42480469 55.00341797 C135.62225423 54.99974403 139.81855412 54.95692993 144.015625 54.90234375 C145.83130486 54.88418695 147.64712292 54.87661469 149.46289062 54.87988281 C152.07530554 54.88274103 154.68485684 54.84742048 157.296875 54.8046875 C158.51271271 54.8183284 158.51271271 54.8183284 159.75311279 54.83224487 C161.99495056 54.77456165 163.8598357 54.67451897 166 54 C168.45900526 51.08453258 168.45900526 51.08453258 170 48 C170.66 48 171.32 48 172 48 C172.061875 47.195625 172.12375 46.39125 172.1875 45.5625 C173.05889028 41.74178876 174.44218935 39.18477272 176.40234375 35.8359375 C178.82490487 31.53574344 180.97052416 27.10206832 183.14477539 22.67236328 C183.78980935 21.36635679 184.4433488 20.06450711 185.10644531 18.76757812 C185.89781716 17.20213218 186.63661818 15.61035347 187.3671875 14.015625 C187.90601563 13.35046875 188.44484375 12.6853125 189 12 C192.10205078 11.87402344 192.10205078 11.87402344 195 12 C195.07007451 26.92501628 195.12298051 41.8500198 195.15543652 56.77516556 C195.17090683 63.70514677 195.19199936 70.63502579 195.22631836 77.56494141 C195.25940813 84.24982869 195.27684208 90.93458774 195.28463173 97.61956024 C195.2901846 100.17290674 195.30102767 102.72624727 195.31719017 105.27954865 C195.33889452 108.84958065 195.34196979 112.41917069 195.34057617 115.98925781 C195.351362 117.05021164 195.36214783 118.11116547 195.3732605 119.20426941 C195.36913651 120.17739578 195.36501251 121.15052216 195.36076355 122.15313721 C195.36352893 122.99749958 195.36629431 123.84186195 195.36914349 124.71181107 C194.88377554 127.72043398 194.29721819 128.96618684 192 131 C189.33850137 131.39262357 187.08838054 131.52347859 184.42610168 131.48101807 C183.64766346 131.48443577 182.86922524 131.48785347 182.06719798 131.49137473 C179.45043366 131.49798019 176.83468789 131.4759344 174.21801758 131.45410156 C172.34567794 131.45297366 170.47333653 131.45360583 168.60099792 131.45587158 C163.51027471 131.45702188 158.41992649 131.43346148 153.32929063 131.40557575 C148.01216409 131.38061467 142.69502948 131.37822428 137.37785339 131.37347412 C127.30556905 131.36102876 117.23345783 131.32818603 107.16124982 131.28807616 C95.69588472 131.24340698 84.23051146 131.22138363 72.76508105 131.20129442 C49.17662462 131.15945478 25.588322 131.08907241 2 131 C0.09948953 127.7804155 -0.24785625 125.4152628 -0.24050903 121.6975708 C-0.24325836 120.62347458 -0.24600769 119.54937836 -0.24884033 118.44273376 C-0.24164978 117.26957108 -0.23445923 116.09640839 -0.22705078 114.88769531 C-0.22734283 113.64840775 -0.22763489 112.40912018 -0.22793579 111.13227844 C-0.22678149 107.73789993 -0.21675359 104.34376493 -0.20278788 100.94942951 C-0.19028225 97.40068085 -0.18911015 93.85192892 -0.18673706 90.30316162 C-0.18052179 83.58485457 -0.16411036 76.86661264 -0.14403808 70.14833426 C-0.12168053 62.49906127 -0.11068601 54.84978515 -0.10064721 47.20048761 C-0.07974416 31.46695403 -0.04456729 15.73348542 0 0 Z " fill="#DB6D41" transform="translate(209,343)"/>
<path d="M0 0 C1.52742577 -0.00810448 1.52742577 -0.00810448 3.08570862 -0.01637268 C6.4539185 -0.02888678 9.82127812 -0.01235046 13.18945312 0.00561523 C15.52828008 0.00546031 17.86710729 0.00397242 20.20593262 0.00120544 C25.10859521 -0.00017976 30.01096568 0.01240017 34.91357422 0.03515625 C41.20204145 0.06354088 47.49002316 0.060805 53.77852631 0.04806614 C58.60833899 0.04111554 63.4380392 0.04889123 68.26783752 0.06132317 C70.58671131 0.06584367 72.90559715 0.06616926 75.22447205 0.06225777 C78.46370246 0.05935169 81.7022607 0.07582435 84.94140625 0.09765625 C86.38314964 0.09090378 86.38314964 0.09090378 87.85401917 0.08401489 C88.73722336 0.09391953 89.62042755 0.10382416 90.53039551 0.11402893 C91.29581917 0.11645883 92.06124283 0.11888872 92.84986115 0.12139225 C95.62316309 0.61871037 96.97908118 1.52016186 98.97070312 3.50170898 C99.47406769 5.49670982 99.47406769 5.49670982 99.4786377 7.81503296 C99.48991699 8.69541733 99.50119629 9.5758017 99.51281738 10.48286438 C99.50472046 11.44605087 99.49662354 12.40923737 99.48828125 13.40161133 C99.49529053 14.41814285 99.5022998 15.43467438 99.50952148 16.48200989 C99.52716253 19.85083129 99.51545487 23.21881615 99.50195312 26.58764648 C99.50464669 28.92550824 99.50852797 31.2633689 99.5135498 33.60122681 C99.5194535 38.50566249 99.51085511 43.40980709 99.4921875 48.31420898 C99.46942303 54.6015719 99.48250025 60.88825093 99.50647736 67.17558861 C99.52093306 72.00545399 99.51632985 76.83515735 99.50596619 81.66502762 C99.50329698 83.9830801 99.50657542 86.30114726 99.5158844 88.61918259 C99.52604299 91.8608569 99.51055616 95.10142559 99.48828125 98.34301758 C99.49637817 99.30215561 99.5044751 100.26129364 99.51281738 101.24949646 C99.46251024 105.20127965 99.21265769 107.96627124 97.57191467 111.59718323 C93.52545317 114.55987581 89.72909854 114.19169373 84.83374023 114.1328125 C83.80409653 114.1399678 82.77445282 114.14712311 81.71360779 114.15449524 C78.30797043 114.17141317 74.90364352 114.15196175 71.49804688 114.13061523 C69.13440339 114.13144358 66.77075996 114.13390164 64.40711975 114.13792419 C59.45312159 114.14078425 54.49957503 114.12605884 49.5456543 114.09863281 C43.18748018 114.06453172 36.83011284 114.07057282 30.47189999 114.08929539 C25.5914891 114.09984997 20.71126683 114.09094179 15.83087349 114.07591057 C13.48605471 114.07071825 11.14121632 114.07122321 8.79640007 114.07745552 C5.5232576 114.08288965 2.25128119 114.06258993 -1.02172852 114.03515625 C-2.48289093 114.04494507 -2.48289093 114.04494507 -3.97357178 114.05493164 C-4.86381546 114.04220718 -5.75405914 114.02948273 -6.67127991 114.01637268 C-7.4449997 114.01356576 -8.2187195 114.01075884 -9.01588535 114.00786686 C-11.02929688 113.50170898 -11.02929688 113.50170898 -12.77744293 111.74706173 C-14.16143314 109.26470647 -14.40802778 107.88040836 -14.41697693 105.06140137 C-14.42688156 104.17819717 -14.43678619 103.29499298 -14.44699097 102.38502502 C-14.44248932 101.42386276 -14.43798767 100.4627005 -14.43334961 99.47241211 C-14.44021286 98.45412827 -14.44707611 97.43584442 -14.45414734 96.38670349 C-14.47245828 93.01864708 -14.46857195 89.65105452 -14.46289062 86.28295898 C-14.46745003 83.94413094 -14.47275487 81.60530424 -14.47877502 79.26647949 C-14.48771434 74.36387693 -14.48527318 69.4614372 -14.4753418 64.55883789 C-14.4638454 58.27030898 -14.48407027 51.98234101 -14.51325893 45.6938858 C-14.5315866 40.86407897 -14.5313354 36.03440745 -14.52562141 31.20457458 C-14.52546781 28.8856884 -14.53154423 26.56679327 -14.54391289 24.24794006 C-14.55875753 21.00860164 -14.54819352 17.77031104 -14.53100586 14.53100586 C-14.54067383 13.5698436 -14.5503418 12.60868134 -14.56030273 11.61839294 C-14.51839844 7.85496675 -14.43204588 5.24596352 -12.62477112 1.90623474 C-8.52221827 -0.31383782 -4.5933455 -0.04620273 0 0 Z " fill="#080505" transform="translate(63.029296875,57.498291015625)"/>
<path d="M0 0 C1.3583761 -0.00935994 1.3583761 -0.00935994 2.74419415 -0.01890898 C5.79140445 -0.03491712 8.83782346 -0.02220405 11.88504028 -0.00964355 C14.06453927 -0.01506127 16.2440346 -0.02218194 18.42352295 -0.03088379 C24.3533348 -0.04916384 30.28286917 -0.04202965 36.21268606 -0.02936745 C42.41102456 -0.01926146 48.60933882 -0.02862667 54.80767822 -0.03491211 C65.88781618 -0.04266364 76.96783107 -0.03020673 88.04794933 -0.00987476 C98.09331845 0.00798799 108.13850264 0.00490033 118.18386841 -0.0135498 C129.84633068 -0.03488487 141.50867718 -0.04292112 153.17115605 -0.03110075 C159.34563394 -0.02485928 165.51998445 -0.02404799 171.69445419 -0.0372467 C177.50080687 -0.04879058 183.30680998 -0.04080584 189.11312485 -0.01766968 C191.24604715 -0.01237432 193.3789988 -0.01391042 195.51190948 -0.02272034 C198.42028524 -0.03362681 201.32753606 -0.01997098 204.23583984 0 C205.0830198 -0.00892289 205.93019975 -0.01784577 206.80305183 -0.02703905 C210.74277333 0.02555142 212.80737821 0.24910145 216.2695179 2.29724884 C219.20953043 5.58746394 218.92485436 8.87476434 218.83865356 13.07043457 C218.83869385 13.89873779 218.83873413 14.72704102 218.83877563 15.58044434 C218.83342265 17.32881268 218.81584907 19.07718059 218.78689575 20.82531738 C218.7450447 23.49891824 218.74582718 26.16999893 218.75271606 28.84387207 C218.74222287 30.54441038 218.72928406 32.24493572 218.71365356 33.94543457 C218.71345215 34.74344482 218.71325073 35.54145508 218.71304321 36.36364746 C218.64916447 39.36481627 218.48986465 41.95164134 217.2714386 44.7186203 C214.06055841 47.55364345 210.47728567 47.05812974 206.40042114 47.01586914 C205.48525884 47.0221091 204.57009653 47.02834907 203.62720203 47.03477812 C200.54768747 47.05078674 197.46895583 47.03807306 194.38943481 47.0255127 C192.18698666 47.03093031 189.98454212 47.03805093 187.78210449 47.04675293 C181.79044636 47.06503199 175.79906286 47.05789976 169.80739975 47.04523659 C163.5467325 47.03513267 157.28608928 47.04449499 151.02542114 47.05078125 C139.8361682 47.05853226 128.64701637 47.04607595 117.45778763 47.0257439 C107.30831366 47.00787231 97.15902267 47.01097625 87.009552 47.02941895 C75.22919161 47.05081506 63.44892039 47.05879842 51.66854 47.04696989 C45.43041018 47.04072314 39.19240647 47.03993179 32.95428467 47.05311584 C27.09048496 47.06464238 21.22703193 47.05670699 15.36326981 47.03353882 C13.20693158 47.02823463 11.05056434 47.02979452 8.89423752 47.03858948 C5.95888865 47.04946099 3.02466259 47.03588309 0.08938599 47.01586914 C-0.77140155 47.02479203 -1.63218908 47.03371491 -2.51906109 47.04290819 C-8.23477341 46.96690073 -8.23477341 46.96690073 -10.78361511 44.7186203 C-12.32170802 41.21856326 -12.18210154 37.69949278 -12.15353394 33.94543457 C-12.1578392 32.70297974 -12.1578392 32.70297974 -12.16223145 31.4354248 C-12.16426962 29.68712682 -12.158757 27.9388059 -12.14620972 26.19055176 C-12.13015197 23.51718064 -12.14606615 20.84532127 -12.16525269 18.17199707 C-12.16327021 16.47147291 -12.15942644 14.77094968 -12.15353394 13.07043457 C-12.15960663 12.27242432 -12.16567932 11.47441406 -12.17193604 10.65222168 C-12.13388962 7.64448834 -12.00330879 5.06953268 -10.77802849 2.29724884 C-7.58765462 -0.52468553 -4.0536201 -0.04247092 0 0 Z " fill="#0D0A09" transform="translate(54.755096435546875,187.4920654296875)"/>
<path d="M0 0 C35.31 0 70.62 0 107 0 C107.99 1.98 107.99 1.98 109 4 C110.98613096 5.44363528 110.98613096 5.44363528 113.3125 6.5625 C114.12074219 6.98402344 114.92898438 7.40554688 115.76171875 7.83984375 C116.50035156 8.22269531 117.23898437 8.60554688 118 9 C118.86625 9.53625 119.7325 10.0725 120.625 10.625 C126.75671721 14.17494154 133.27684478 16.06283256 140.0625 17.9375 C141.92187937 18.45961986 143.78125435 18.98175533 145.640625 19.50390625 C146.54748047 19.75672363 147.45433594 20.00954102 148.38867188 20.27001953 C152.0345509 21.28920224 155.67348772 22.33156893 159.3125 23.375 C160.42238281 23.69210937 161.53226563 24.00921875 162.67578125 24.3359375 C163.44277344 24.55507813 164.20976562 24.77421875 165 25 C163.901664 29.97235037 161.70315695 34.4359702 159.625 39.0625 C159.22539062 39.97322266 158.82578125 40.88394531 158.4140625 41.82226562 C158.0221875 42.69689453 157.6303125 43.57152344 157.2265625 44.47265625 C156.87158691 45.26937744 156.51661133 46.06609863 156.15087891 46.88696289 C155 49 155 49 153.48583984 50.40795898 C151.39556436 52.4262933 151.39556436 52.4262933 150 58 C139.77 58 129.54 58 119 58 C118.67 53.71 118.34 49.42 118 45 C115.53237009 41.68818092 113.40293014 40.2686201 110 38 C107.9582143 37.67835943 107.9582143 37.67835943 105.69970703 37.69360352 C104.835159 37.67761612 103.97061096 37.66162872 103.0798645 37.64515686 C102.14858734 37.63979416 101.21731018 37.63443146 100.2578125 37.62890625 C99.29728973 37.61987778 98.33676697 37.6108493 97.34713745 37.60154724 C95.31462728 37.58703712 93.28207032 37.57815612 91.24951172 37.57446289 C88.14340284 37.56257046 85.03928302 37.51339565 81.93359375 37.46289062 C79.95834303 37.45342591 77.9830801 37.44619111 76.0078125 37.44140625 C75.0805838 37.42187393 74.1533551 37.40234161 73.19802856 37.38221741 C68.56375623 37.41456026 66.65502664 37.47126934 62.93701172 40.47241211 C62.29779785 41.30651611 61.65858398 42.14062012 61 43 C60.67 43.33 60.34 43.66 60 44 C59.67 48.62 59.34 53.24 59 58 C48.77 58 38.54 58 28 58 C25.7415625 53.235625 25.7415625 53.235625 23.4375 48.375 C20.00871611 41.16621442 16.5159478 33.99478365 12.9296875 26.86328125 C12.58786942 26.18317993 12.24605133 25.50307861 11.89387512 24.80236816 C10.19459035 21.42474674 8.48922313 18.05032982 6.77709961 14.67919922 C6.14949383 13.43591429 5.52196719 12.1925894 4.89453125 10.94921875 C4.05692261 9.29925903 4.05692261 9.29925903 3.20239258 7.6159668 C2 5 2 5 2 3 C1.34 3 0.68 3 0 3 C0 2.01 0 1.02 0 0 Z " fill="#F7C797" transform="translate(218,326)"/>
<path d="M0 0 C0.66 0 1.32 0 2 0 C2.33 1.051875 2.66 2.10375 3 3.1875 C4.49233333 7.21679999 6.56728016 10.63166945 8.875 14.25 C12.02640222 19.19783655 14.4456586 24.13067701 16.56640625 29.59765625 C18.79564719 34.88830709 21.47021715 39.95480304 24.14233398 45.03393555 C24.52591064 45.77812744 24.9094873 46.52231934 25.3046875 47.2890625 C25.65515137 47.95631348 26.00561523 48.62356445 26.36669922 49.31103516 C26.57568848 49.86839355 26.78467773 50.42575195 27 51 C26.67 51.66 26.34 52.32 26 53 C25.89027715 54.48450641 25.84096725 55.97371086 25.82299805 57.4621582 C25.81016281 58.38684402 25.79732758 59.31152985 25.78410339 60.26423645 C25.77671646 61.26629623 25.76932953 62.26835602 25.76171875 63.30078125 C25.753647 64.3293071 25.74557526 65.35783295 25.73725891 66.41752625 C25.72341233 68.59726268 25.71269275 70.77702086 25.70483398 72.95678711 C25.68762311 76.28866727 25.64374165 79.61955486 25.59960938 82.95117188 C25.58948244 85.06770103 25.58096634 87.18423863 25.57421875 89.30078125 C25.55671066 90.29676834 25.53920258 91.29275543 25.52116394 92.31892395 C25.53486532 96.69381523 25.57457176 99.28146509 27.83911133 103.10620117 C29.94205769 105.1959394 29.94205769 105.1959394 33 106 C33.33 107.32 33.66 108.64 34 110 C87.13 110 140.26 110 195 110 C195 127 195 127 192 131 C189.33850137 131.39262357 187.08838054 131.52347859 184.42610168 131.48101807 C183.64766346 131.48443577 182.86922524 131.48785347 182.06719798 131.49137473 C179.45043366 131.49798019 176.83468789 131.4759344 174.21801758 131.45410156 C172.34567794 131.45297366 170.47333653 131.45360583 168.60099792 131.45587158 C163.51027471 131.45702188 158.41992649 131.43346148 153.32929063 131.40557575 C148.01216409 131.38061467 142.69502948 131.37822428 137.37785339 131.37347412 C127.30556905 131.36102876 117.23345783 131.32818603 107.16124982 131.28807616 C95.69588472 131.24340698 84.23051146 131.22138363 72.76508105 131.20129442 C49.17662462 131.15945478 25.588322 131.08907241 2 131 C0.09948953 127.7804155 -0.24785625 125.4152628 -0.24050903 121.6975708 C-0.24325836 120.62347458 -0.24600769 119.54937836 -0.24884033 118.44273376 C-0.24164978 117.26957108 -0.23445923 116.09640839 -0.22705078 114.88769531 C-0.22734283 113.64840775 -0.22763489 112.40912018 -0.22793579 111.13227844 C-0.22678149 107.73789993 -0.21675359 104.34376493 -0.20278788 100.94942951 C-0.19028225 97.40068085 -0.18911015 93.85192892 -0.18673706 90.30316162 C-0.18052179 83.58485457 -0.16411036 76.86661264 -0.14403808 70.14833426 C-0.12168053 62.49906127 -0.11068601 54.84978515 -0.10064721 47.20048761 C-0.07974416 31.46695403 -0.04456729 15.73348542 0 0 Z " fill="#9F5030" transform="translate(209,343)"/>
<path d="M0 0 C4.34294762 1.51839898 7.97247709 3.80285624 11.75 6.375 C12.39396729 6.8090918 13.03793457 7.24318359 13.70141602 7.69042969 C20.19959635 12.09264894 26.62432939 16.60140614 33.02734375 21.140625 C33.68404053 21.60267334 34.3407373 22.06472168 35.01733398 22.54077148 C36.38466531 23.54711791 37.71660682 24.60274123 39.01586914 25.69555664 C42.43267112 28.52295511 44.24339594 29.91890716 48.75390625 30.40234375 C50.01074219 30.24894531 51.26757812 30.09554688 52.5625 29.9375 C53.95044079 29.78961143 55.33846421 29.64249662 56.7265625 29.49609375 C57.7789209 29.36823486 57.7789209 29.36823486 58.85253906 29.23779297 C62.37185034 28.84809206 65.90275603 28.68897104 69.4375 28.5 C73.53822136 28.6137401 73.53822136 28.6137401 77 27 C78.92478813 26.84193469 80.8549921 26.748865 82.78515625 26.68359375 C84.53989258 26.62075195 84.53989258 26.62075195 86.33007812 26.55664062 C87.56177734 26.51732422 88.79347656 26.47800781 90.0625 26.4375 C91.91584961 26.37272461 91.91584961 26.37272461 93.80664062 26.30664062 C96.87097335 26.20015802 99.93539073 26.09814576 103 26 C102.49255285 31.25692443 101.64255683 35.47421327 99.5625 40.375 C97.60761475 45.21727323 96.29834953 49.77924262 95.3828125 54.90625 C94.90304885 57.53026341 94.36862736 59.6949434 93 62 C83.53293995 68.21275816 62.46006112 63.12474671 51.98828125 61.08203125 C38.0456999 58.14018957 25.02833122 53.7324896 11.91796875 48.19921875 C9.40105113 47.16482289 6.87711452 46.21955397 4.3125 45.3125 C1 44 1 44 0 42 C-1.1446875 41.566875 -1.1446875 41.566875 -2.3125 41.125 C-5.52942422 39.77838056 -7.05165013 38.9225248 -9 36 C-8.61795533 28.97732433 -6.96874516 22.49728502 -5.0625 15.75 C-4.66514648 14.29980469 -4.66514648 14.29980469 -4.25976562 12.8203125 C-3.04196619 8.43260833 -1.74694907 4.21071564 0 0 Z " fill="#6E8245" transform="translate(335,277)"/>
<path d="M0 0 C66.66 0 133.32 0 202 0 C202 5.61 202 11.22 202 17 C135.34 17 68.68 17 0 17 C0 11.39 0 5.78 0 0 Z " fill="#D66C42" transform="translate(57,203)"/>
<path d="M0 0 C7.57436498 -0.87571487 11.7806619 2.56303761 17.48364258 7.03735352 C18.7480661 8.04705446 20.01071918 9.05897696 21.27148438 10.07324219 C23.67171193 11.94170662 26.19871625 13.54550605 28.7890625 15.13671875 C32.36783845 17.35639943 35.78407652 19.68706701 39.1640625 22.19921875 C44.02403576 25.78953281 49.02755254 29.11035196 54.1015625 32.38671875 C54.85260254 32.87172852 55.60364258 33.35673828 56.37744141 33.85644531 C60.12828058 36.29182183 60.12828058 36.29182183 64.0390625 38.44921875 C64.0390625 39.10921875 64.0390625 39.76921875 64.0390625 40.44921875 C52.44118105 41.86465352 40.88471639 42.88193656 29.21484375 43.45458984 C26.77563908 43.57488073 24.33708306 43.70484324 21.8984375 43.8359375 C-7.40074138 45.3680124 -7.40074138 45.3680124 -15.8984375 38.88671875 C-20.16116787 35.71979121 -24.48705179 32.74124503 -28.9609375 29.88671875 C-29.83987671 29.32476807 -29.83987671 29.32476807 -30.73657227 28.75146484 C-33.57687777 26.94338999 -36.4299469 25.1603441 -39.296875 23.39453125 C-40.29976563 22.77320313 -41.30265625 22.151875 -42.3359375 21.51171875 C-43.23054688 20.96644531 -44.12515625 20.42117188 -45.046875 19.859375 C-45.99433594 19.16134766 -45.99433594 19.16134766 -46.9609375 18.44921875 C-46.9609375 17.78921875 -46.9609375 17.12921875 -46.9609375 16.44921875 C-47.67765625 16.19140625 -48.394375 15.93359375 -49.1328125 15.66796875 C-52.12432551 14.37880845 -54.55321355 12.82713148 -57.2109375 10.94921875 C-58.08234375 10.34078125 -58.95375 9.73234375 -59.8515625 9.10546875 C-61.9609375 7.44921875 -61.9609375 7.44921875 -62.9609375 5.44921875 C-52.27425219 4.30023275 -41.6167047 3.25512277 -30.87548828 2.79125977 C-26.8246724 2.60567214 -22.95337705 2.13123865 -18.9609375 1.44921875 C-14.97107587 1.10795287 -10.98350298 0.87070692 -6.984375 0.6796875 C-4.60077607 0.56578592 -2.36707503 0.35912088 0 0 Z " fill="#AFBB89" transform="translate(390.9609375,247.55078125)"/>
<path d="M0 0 C28.38 0 56.76 0 86 0 C86 28.05 86 56.1 86 85 C84.68 85 83.36 85 82 85 C81.97421875 83.81664062 81.9484375 82.63328125 81.921875 81.4140625 C81.44961704 66.43809692 78.74948748 57.74948748 68 47 C67.94781073 43.4995913 68.05395222 40.05368326 68.25390625 36.56054688 C68.44946951 29.99767405 66.72094088 26.21504208 62.4296875 21.14453125 C55.83940162 15.49808028 48.3043627 12.13069428 39.51171875 12.55859375 C31.82648706 13.90918657 26.11263418 17.99727132 21.33984375 24.0390625 C17.36584352 29.85523776 17.49940542 36.16630188 18 43 C18.495 43.495 18.495 43.495 19 44 C19.296875 46.375 19.296875 46.375 19 49 C17.390625 50.625 17.390625 50.625 15.25 52 C9.57621253 55.959622 6.68274097 59.33896523 5.37109375 66.17578125 C4.5939215 72.09047111 4.29814001 78.04504564 4 84 C2.68 84 1.36 84 0 84 C0 56.28 0 28.56 0 0 Z " fill="#F34741" transform="translate(62,72)"/>
<path d="M0 0 C1.07841156 -0.00379669 2.15682312 -0.00759338 3.26791382 -0.01150513 C6.83572386 -0.01892001 10.40272121 0.00248465 13.97045898 0.02490234 C16.44620162 0.02728613 18.92194609 0.02819223 21.39768982 0.02767944 C26.58701902 0.03080899 31.77607225 0.04738777 36.96533203 0.07421875 C43.62604004 0.1082165 50.28629132 0.11584693 56.94709873 0.11432838 C62.05908619 0.11487151 67.17100701 0.12582915 72.28297234 0.14033127 C74.73943515 0.14670715 77.19590553 0.15064 79.65237617 0.15211868 C83.08088239 0.15644222 86.50906336 0.17392265 89.9375 0.1953125 C90.95836197 0.19440613 91.97922394 0.19349976 93.03102112 0.19256592 C94.4294928 0.20536087 94.4294928 0.20536087 95.85621643 0.21841431 C97.07210371 0.22344184 97.07210371 0.22344184 98.31255436 0.22857094 C100.40405273 0.48583984 100.40405273 0.48583984 103.40405273 2.48583984 C103.80249023 4.54443359 103.80249023 4.54443359 103.77905273 6.92333984 C103.7906543 8.09703125 103.7906543 8.09703125 103.80249023 9.29443359 C103.30426915 12.03464957 102.57392989 12.77630135 100.40405273 14.48583984 C98.30976105 14.86056995 98.30976105 14.86056995 95.8494873 14.86006165 C94.91572769 14.86707596 93.98196808 14.87409027 93.01991272 14.88131714 C91.99747971 14.8736734 90.97504669 14.86602966 89.92163086 14.8581543 C88.30423256 14.86363029 88.30423256 14.86363029 86.65415955 14.86921692 C83.0810483 14.87733939 79.50838813 14.86369782 75.93530273 14.84912109 C73.45812989 14.84860269 70.98095662 14.84911962 68.50378418 14.85063171 C62.6425051 14.8505304 56.78139225 14.83563462 50.92015314 14.81498069 C44.917667 14.79528811 38.9153273 14.7994636 32.91281891 14.80553913 C27.79654925 14.80887626 22.68033148 14.80225384 17.56407166 14.7924099 C15.10481538 14.78855319 12.64555334 14.78741162 10.18629456 14.78899574 C6.75290879 14.78936547 3.31981642 14.77677194 -0.11352539 14.76049805 C-1.1359584 14.76297546 -2.15839142 14.76545288 -3.21180725 14.76800537 C-4.14556686 14.76092056 -5.07932648 14.75383575 -6.04138184 14.74653625 C-6.85327217 14.74448339 -7.66516251 14.74243052 -8.50165558 14.74031544 C-10.59594727 14.48583984 -10.59594727 14.48583984 -13.59594727 12.48583984 C-14.92933457 6.97450565 -14.92933457 6.97450565 -14.59594727 4.48583984 C-11.05926492 -0.99247939 -5.86190278 -0.06466388 0 0 Z " fill="#080A09" transform="translate(121.595947265625,251.51416015625)"/>
<path d="M0 0 C28.38 0 56.76 0 86 0 C86 28.05 86 56.1 86 85 C84.68 85 83.36 85 82 85 C81.93941406 83.77023438 81.87882812 82.54046875 81.81640625 81.2734375 C81.73194995 79.64061573 81.64730453 78.00780373 81.5625 76.375 C81.52318359 75.56675781 81.48386719 74.75851563 81.44335938 73.92578125 C81.21203918 69.54849135 80.83079083 65.31452719 80 61 C80.66 61 81.32 61 82 61 C83.23402862 65.77092956 83.11265112 70.42469446 83.0625 75.3125 C83.05798828 76.14845703 83.05347656 76.98441406 83.04882812 77.84570312 C83.03710548 79.89716649 83.01917203 81.94859273 83 84 C83.66 84 84.32 84 85 84 C85 58.92 85 33.84 85 8 C59.59 8 34.18 8 8 8 C8 23.18 8 38.36 8 54 C8.99 54.33 9.98 54.66 11 55 C10.38125 55.639375 9.7625 56.27875 9.125 56.9375 C3.77805315 64.64339398 4.45369546 74.93803023 4 84 C2.68 84 1.36 84 0 84 C0 56.28 0 28.56 0 0 Z " fill="#BC4C4B" transform="translate(62,72)"/>
<path d="M0 0 C1.1177758 -0.00569504 1.1177758 -0.00569504 2.25813293 -0.01150513 C4.71744089 -0.01890492 7.17556296 0.00246252 9.63476562 0.02490234 C11.34582378 0.02728725 13.05688459 0.02819199 14.76794434 0.02767944 C18.3524619 0.03080646 21.93657921 0.04736379 25.52099609 0.07421875 C30.11446658 0.10819849 34.70749734 0.11584724 39.3010788 0.11432838 C42.83384393 0.11487239 46.36651304 0.12584448 49.89924622 0.14033127 C51.59291355 0.14669316 53.28659175 0.15063674 54.98027039 0.15211868 C57.34771226 0.15645821 59.71468938 0.17397285 62.08203125 0.1953125 C62.78137283 0.19440613 63.48071442 0.19349976 64.20124817 0.19256592 C67.78623936 0.23978564 70.54755476 0.41025232 73.54101562 2.48583984 C75.06948224 5.54277307 74.77344008 8.11568531 74.54101562 11.48583984 C73.49595642 13.68005371 73.49595642 13.68005371 71.54101562 15.48583984 C68.89508333 15.88906921 66.65987267 16.03312804 64.01196289 16.00341797 C63.24741791 16.01042725 62.48287292 16.01743652 61.69515991 16.0246582 C59.16554537 16.04227635 56.63704798 16.0306015 54.10742188 16.01708984 C52.35009038 16.01978396 50.59276034 16.0236657 48.83543396 16.02868652 C45.15080587 16.03458695 41.46656547 16.02600232 37.78198242 16.00732422 C33.05936292 15.98455089 28.33765347 15.99764369 23.61506748 16.02161407 C19.98533783 16.03607178 16.35582373 16.03146595 12.72608757 16.02110291 C10.98496328 16.01843466 9.24381941 16.02170883 7.50271797 16.03102112 C5.06777299 16.04118469 2.6342984 16.02568927 0.19946289 16.00341797 C-0.87995827 16.01556335 -0.87995827 16.01556335 -1.98118591 16.0279541 C-5.34360621 15.9709984 -7.17370534 15.69724013 -9.90638733 13.67224121 C-12.17984682 10.47070547 -12.00581051 8.3136228 -11.45898438 4.48583984 C-8.30135733 0.07061721 -5.08810607 -0.08177019 0 0 Z " fill="#131515" transform="translate(103.458984375,342.51416015625)"/>
<path d="M0 0 C0.99 0.66 1.98 1.32 3 2 C9.71016925 3.91719121 15.56973362 3.32584103 22 1 C25.4375 0 25.4375 0 29 0 C32.32991652 2.04561472 35.2384738 4.4769476 37 8 C37 13.61 37 19.22 37 25 C20.5 25 4 25 -13 25 C-13 8 -13 8 -12 4 C-8.02203606 1.24602496 -4.9754143 -0.82923572 0 0 Z " fill="#EDC007" transform="translate(93,132)"/>
<path d="M0 0 C0.68812271 -0.00846954 1.37624542 -0.01693909 2.08522034 -0.02566528 C4.35973591 -0.04906412 6.63357631 -0.05005694 8.90820312 -0.04882812 C10.48856885 -0.05592728 12.06893198 -0.06362591 13.64929199 -0.07189941 C16.96141731 -0.08535027 20.27330422 -0.08691004 23.58544922 -0.08105469 C27.83300147 -0.07515347 32.07941269 -0.10576319 36.32674408 -0.14617157 C39.59013039 -0.17200029 42.85324004 -0.17493054 46.11671448 -0.17127991 C47.68285494 -0.17297527 49.24900761 -0.18265781 50.81504822 -0.20042419 C53.003782 -0.22252465 55.19018152 -0.21296234 57.37890625 -0.1953125 C58.62450317 -0.19736694 59.8701001 -0.19942139 61.15344238 -0.20153809 C64.18945312 0.41992188 64.18945312 0.41992188 66.1229248 2.76306152 C67.47972484 6.14302635 67.24262142 7.95951176 66.18945312 11.41992188 C65.0546875 13.07435608 65.0546875 13.07435608 63.18945312 14.41992188 C60.19140625 14.80760193 60.19140625 14.80760193 56.47070312 14.82397461 C55.45314941 14.83426949 55.45314941 14.83426949 54.41503906 14.84477234 C52.17296412 14.86307215 49.93158671 14.85919906 47.68945312 14.85351562 C46.13150809 14.8580756 44.57356508 14.86338061 43.015625 14.86940002 C39.75056791 14.87833708 36.48575533 14.875901 33.22070312 14.8659668 C29.03382127 14.85446996 24.84778189 14.87469561 20.66101074 14.90388393 C17.44395578 14.92221716 14.22710385 14.92195941 11.01000977 14.91624641 C9.46621518 14.91609288 7.92240711 14.92216392 6.37866211 14.93453789 C4.22130225 14.94939479 2.06551334 14.93881312 -0.09179688 14.92163086 C-1.31962891 14.92146469 -2.54746094 14.92129852 -3.8125 14.92112732 C-6.81054688 14.41992188 -6.81054688 14.41992188 -8.70703125 12.61122131 C-10.31949116 9.40928886 -10.19514374 6.94539311 -9.81054688 3.41992188 C-7.33147507 -0.39337739 -4.26768156 0.02884594 0 0 Z " fill="#0A0C0C" transform="translate(52.810546875,297.580078125)"/>
<path d="M0 0 C10.56 0 21.12 0 32 0 C32 8.58 32 17.16 32 26 C21.44 26 10.88 26 0 26 C0 17.42 0 8.84 0 0 Z " fill="#FDCC04" transform="translate(291,377)"/>
<path d="M0 0 C1.07483139 -0.00145523 2.14966278 -0.00291046 3.25706482 -0.00440979 C5.52744256 -0.00275083 7.79783154 0.00881003 10.06811523 0.02954102 C13.54914929 0.05851514 17.02866269 0.05014537 20.50976562 0.03710938 C22.71485117 0.04334609 24.9199319 0.05173651 27.125 0.0625 C28.69067467 0.05809654 28.69067467 0.05809654 30.28797913 0.05360413 C31.25585861 0.0662883 32.2237381 0.07897247 33.22094727 0.09204102 C34.07270035 0.097444 34.92445343 0.10284698 35.80201721 0.1084137 C38.51808069 0.58832569 39.40246522 1.26451516 40.99609375 3.49609375 C41.75645557 10.33935013 41.75645557 10.33935013 39.62109375 13.58789062 C35.51692867 16.57134991 31.45174412 16.08726463 26.5 16.0625 C25.47430405 16.06869858 24.44860809 16.07489716 23.39183044 16.08128357 C21.22403919 16.08838304 19.05619343 16.08520555 16.88842773 16.07250977 C13.57368415 16.05865682 10.2617702 16.09269937 6.94726562 16.13085938 C4.83984306 16.1318107 2.73241696 16.12995104 0.625 16.125 C-0.85956947 16.14488731 -0.85956947 16.14488731 -2.37413025 16.16517639 C-7.06191333 16.10184413 -9.29199071 16.03026647 -13.13305664 13.14819336 C-15.00390625 10.49609375 -15.00390625 10.49609375 -15.56640625 7.43359375 C-13.9458728 -1.02919204 -7.08326189 -0.07638352 0 0 Z " fill="#0B0C0D" transform="translate(231.00390625,144.50390625)"/>
<path d="M0 0 C1.28215393 -0.00477356 1.28215393 -0.00477356 2.59020996 -0.00964355 C4.04687073 -0.02855652 4.04687073 -0.02855652 5.53295898 -0.04785156 C6.57987915 -0.03975464 7.62679932 -0.03165771 8.70544434 -0.02331543 C9.78169067 -0.02714233 10.85793701 -0.03096924 11.96679688 -0.03491211 C14.24313288 -0.0376351 16.51949997 -0.03024699 18.79577637 -0.0135498 C22.2859046 0.00785307 25.7739741 -0.01333973 29.26403809 -0.03894043 C31.47367806 -0.03629722 33.68331675 -0.0311724 35.89294434 -0.02331543 C37.46332458 -0.03546082 37.46332458 -0.03546082 39.06542969 -0.04785156 C40.03653687 -0.03524292 41.00764404 -0.02263428 42.00817871 -0.00964355 C43.29033264 -0.00487 43.29033264 -0.00487 44.59838867 0 C46.79919434 0.50793457 46.79919434 0.50793457 48.58032227 2.40649414 C50.56245472 5.82386121 49.99357012 8.62041892 49.79919434 12.50793457 C46.77084438 14.25264878 44.57632711 14.76288288 41.09411621 14.78259277 C40.16635376 14.79212479 39.23859131 14.8016568 38.28271484 14.81147766 C37.28784058 14.81056625 36.29296631 14.80965485 35.26794434 14.80871582 C33.7258429 14.81514351 33.7258429 14.81514351 32.15258789 14.82170105 C29.98059831 14.82743991 27.80858951 14.82794788 25.63659668 14.8236084 C22.31155705 14.82044633 18.98740536 14.84392099 15.66247559 14.8692627 C13.55179963 14.87153549 11.44112127 14.87223928 9.33044434 14.87121582 C8.33557007 14.88042557 7.3406958 14.88963531 6.31567383 14.89912415 C4.92403015 14.88978096 4.92403015 14.88978096 3.50427246 14.88024902 C2.28326843 14.88119316 2.28326843 14.88119316 1.03759766 14.88215637 C-1.78786481 14.40978857 -3.15988239 13.49975366 -5.20080566 11.50793457 C-5.66087393 7.89311247 -5.77648283 5.53481353 -3.97290039 2.31762695 C-2.20080566 0.50793457 -2.20080566 0.50793457 0 0 Z " fill="#0B0C0C" transform="translate(182.2008056640625,106.4920654296875)"/>
<path d="M0 0 C1.94716951 -0.02630211 3.89486499 -0.02361788 5.84204102 0.00219727 C6.87152359 -0.00021469 7.90100616 -0.00262665 8.96168518 -0.00511169 C11.13969777 -0.00413185 13.31773483 0.00929432 15.49560547 0.03417969 C18.83004436 0.06844012 22.16182754 0.05485724 25.49633789 0.03540039 C27.61158356 0.0422999 29.72682237 0.05197323 31.84204102 0.06469727 C33.339058 0.05725746 33.339058 0.05725746 34.86631775 0.04966736 C41.76830064 0.16707151 41.76830064 0.16707151 45.0378418 2.53710938 C47.37152178 6.10247689 46.88137389 8.44232482 46.40844727 12.63110352 C43.21845959 14.75776196 42.37441908 14.8882476 38.70922852 14.92163086 C37.75814209 14.93439056 36.80705566 14.94715027 35.82714844 14.96029663 C34.80210205 14.96252228 33.77705566 14.96474792 32.72094727 14.96704102 C31.13987183 14.97702621 31.13987183 14.97702621 29.52685547 14.98721313 C27.29762519 14.99734112 25.06836459 15.00203011 22.83911133 15.00170898 C19.42161425 15.00608665 16.00540365 15.04241825 12.58813477 15.08032227 C10.42407669 15.08618936 8.26001247 15.09015947 6.09594727 15.09204102 C5.07090088 15.10641205 4.04585449 15.12078308 2.98974609 15.1355896 C2.03865967 15.12943634 1.08757324 15.12328308 0.10766602 15.11694336 C-0.72933838 15.1197934 -1.56634277 15.12264343 -2.42871094 15.12557983 C-4.59155273 14.63110352 -4.59155273 14.63110352 -6.36181641 12.75308228 C-7.91168233 10.07870202 -8.03824786 8.68352017 -7.59155273 5.63110352 C-6.10901305 1.17185343 -4.46296639 0.29434145 0 0 Z " fill="#0C0D0E" transform="translate(226.591552734375,68.368896484375)"/>
<path d="M0 0 C4.55564061 1.58532809 8.31475769 3.99003081 12.3125 6.625 C12.95767578 7.04523438 13.60285156 7.46546875 14.26757812 7.8984375 C15.84760724 8.92838241 17.42416047 9.96365628 19 11 C18.01 11.33 17.02 11.66 16 12 C15.81244141 13.50820313 15.81244141 13.50820313 15.62109375 15.046875 C15.07336134 18.87811397 14.11313822 22.52320782 13.0625 26.25 C11.51674781 31.80223096 10.3169948 37.31711764 9.4921875 43.0234375 C9.24855469 44.00183594 9.24855469 44.00183594 9 45 C7 46 7 46 3.9375 45.1875 C1 44 1 44 0 42 C-1.1446875 41.566875 -1.1446875 41.566875 -2.3125 41.125 C-5.52942422 39.77838056 -7.05165013 38.9225248 -9 36 C-8.61795533 28.97732433 -6.96874516 22.49728502 -5.0625 15.75 C-4.66514648 14.29980469 -4.66514648 14.29980469 -4.25976562 12.8203125 C-3.04196619 8.43260833 -1.74694907 4.21071564 0 0 Z " fill="#4A5F40" transform="translate(335,277)"/>
<path d="M0 0 C0.83418961 -0.00945648 1.66837921 -0.01891296 2.52784729 -0.02865601 C3.42478806 -0.02258331 4.32172882 -0.01651062 5.24584961 -0.01025391 C6.16909531 -0.01312408 7.092341 -0.01599426 8.04356384 -0.01895142 C9.9945436 -0.02099252 11.94554379 -0.0154594 13.89648438 -0.00292969 C16.89035527 0.01314152 19.88287984 -0.00278617 22.87670898 -0.02197266 C24.77059218 -0.01999059 26.66447454 -0.01614768 28.55834961 -0.01025391 C29.9067971 -0.01936295 29.9067971 -0.01936295 31.28248596 -0.02865601 C32.52904213 -0.01447128 32.52904213 -0.01447128 33.80078125 0 C34.5334169 0.00238678 35.26605255 0.00477356 36.02088928 0.00723267 C37.83569336 0.38818359 37.83569336 0.38818359 39.83569336 3.38818359 C40.10131836 5.32568359 40.10131836 5.32568359 40.08569336 7.38818359 C40.09342773 8.40912109 40.09342773 8.40912109 40.10131836 9.45068359 C39.83569336 11.38818359 39.83569336 11.38818359 37.83569336 14.38818359 C36.02088928 14.77586365 36.02088928 14.77586365 33.80078125 14.79223633 C32.9697438 14.8049205 32.13870636 14.81760468 31.28248596 14.83067322 C30.38352097 14.82773758 29.48455597 14.82480194 28.55834961 14.82177734 C27.17491615 14.82964012 27.17491615 14.82964012 25.76353455 14.83766174 C23.8107911 14.84409207 21.85800896 14.84273192 19.90527344 14.83422852 C16.9132803 14.82572646 13.92320039 14.85445256 10.93139648 14.88623047 C9.03621477 14.88784269 7.14102966 14.88726455 5.24584961 14.88427734 C3.90043846 14.90112831 3.90043846 14.90112831 2.52784729 14.9183197 C-3.63818989 14.848979 -3.63818989 14.848979 -6.22900391 12.57983398 C-7.6015708 9.3635633 -7.54071824 6.83862323 -7.16430664 3.38818359 C-5.02833387 0.52946903 -3.50734736 0.01141384 0 0 Z " fill="#0C0D0D" transform="translate(137.164306640625,297.61181640625)"/>
<path d="M0 0 C3.609375 -0.020625 7.21875 -0.04125 10.9375 -0.0625 C12.07695068 -0.071604 13.21640137 -0.08070801 14.39038086 -0.09008789 C15.28120361 -0.09258545 16.17202637 -0.09508301 17.08984375 -0.09765625 C18.46450806 -0.10551147 18.46450806 -0.10551147 19.86694336 -0.11352539 C22 0 22 0 23 1 C23.09932153 2.69558726 23.13080007 4.39525747 23.1328125 6.09375 C23.13474609 7.63869141 23.13474609 7.63869141 23.13671875 9.21484375 C23.13285156 10.29894531 23.12898438 11.38304687 23.125 12.5 C23.13080078 14.12615234 23.13080078 14.12615234 23.13671875 15.78515625 C23.13542969 16.81511719 23.13414062 17.84507812 23.1328125 18.90625 C23.13168457 19.85822266 23.13055664 20.81019531 23.12939453 21.79101562 C23 24 23 24 22 25 C20.36527118 25.08700342 18.72685945 25.10701063 17.08984375 25.09765625 C16.199021 25.09515869 15.30819824 25.09266113 14.39038086 25.09008789 C13.25093018 25.08098389 12.11147949 25.07187988 10.9375 25.0625 C7.328125 25.041875 3.71875 25.02125 0 25 C0 16.75 0 8.5 0 0 Z " fill="#D8EBEB" transform="translate(266,288)"/>
<path d="M0 0 C0.73951904 -0.00287018 1.47903809 -0.00574036 2.2409668 -0.00869751 C3.80095182 -0.01073453 5.3609626 -0.00522995 6.92089844 0.00732422 C9.30461908 0.0233844 11.6866444 0.00746471 14.0703125 -0.01171875 C15.5885454 -0.00973625 17.10677724 -0.00589244 18.625 0 C19.69077271 -0.00910904 19.69077271 -0.00910904 20.77807617 -0.0184021 C23.89858107 0.02580662 26.02464778 0.23547794 28.76416016 1.78637695 C30.3125 3.3984375 30.3125 3.3984375 30.7734375 5.58984375 C30.73089844 6.76353516 30.73089844 6.76353516 30.6875 7.9609375 C30.67460938 8.74597656 30.66171875 9.53101563 30.6484375 10.33984375 C30.3125 12.3984375 30.3125 12.3984375 28.3125 14.3984375 C25.55071562 14.5983072 22.89139917 14.67822651 20.12890625 14.6640625 C18.91194313 14.66693268 18.91194313 14.66693268 17.6703949 14.66986084 C15.9530303 14.67122292 14.23565541 14.66752488 12.51831055 14.65917969 C9.88892452 14.64849409 7.26022388 14.65906685 4.63085938 14.671875 C2.96354016 14.67055314 1.29622137 14.66799019 -0.37109375 14.6640625 C-1.15866562 14.66811096 -1.94623749 14.67215942 -2.75767517 14.67633057 C-6.59399167 14.64338432 -8.42007611 14.5767201 -11.6875 12.3984375 C-12.12109375 10.33984375 -12.12109375 10.33984375 -12.125 7.9609375 C-12.14433594 7.17847656 -12.16367187 6.39601563 -12.18359375 5.58984375 C-11.6875 3.3984375 -11.6875 3.3984375 -10.13696289 1.78637695 C-6.79626687 -0.10656204 -3.73772344 -0.0319459 0 0 Z " fill="#050607" transform="translate(54.6875,251.6015625)"/>
<path d="M0 0 C1.49466797 0.00773437 1.49466797 0.00773437 3.01953125 0.015625 C4.05980469 0.03625 5.10007812 0.056875 6.171875 0.078125 C7.70908203 0.08585937 7.70908203 0.08585937 9.27734375 0.09375 C23.52970535 0.24049246 23.52970535 0.24049246 26.921875 2.890625 C28.47512899 6.67668161 27.77093654 9.34406701 26.921875 13.328125 C22.6147468 15.4816891 16.90064086 14.59617897 12.1184082 14.62329102 C9.99560393 14.64053379 7.87434593 14.68442739 5.75195312 14.72851562 C4.40365728 14.73864039 3.05534821 14.74715717 1.70703125 14.75390625 C-0.13556274 14.77578003 -0.13556274 14.77578003 -2.01538086 14.7980957 C-5.078125 14.328125 -5.078125 14.328125 -6.97875977 12.52416992 C-8.58329143 9.31902617 -8.46272611 6.85363517 -8.078125 3.328125 C-5.77506359 0.09265007 -3.84445311 -0.03977493 0 0 Z " fill="#0B0F11" transform="translate(51.078125,343.671875)"/>
<path d="M0 0 C0.66 0 1.32 0 2 0 C2.66 2.31 3.32 4.62 4 7 C3.67 7 3.34 7 3 7 C3 46.93 3 86.86 3 128 C6.00251896 129.50125948 9.08540338 129.13346982 12.37771606 129.12025452 C13.14713276 129.12110894 13.91654945 129.12196337 14.7092818 129.12284368 C17.30116559 129.12449777 19.89298541 129.11897827 22.48486328 129.11352539 C24.33735147 129.11324348 26.18983976 129.11340133 28.04232788 129.1139679 C33.08338071 129.11425571 38.12440992 129.10836156 43.16545725 129.10139394 C48.42922249 129.09515774 53.69298823 129.09455639 58.95675659 129.09336853 C68.92983162 129.090256 78.90289574 129.08204367 88.87596595 129.07201904 C100.22766913 129.06085547 111.57937281 129.05534684 122.9310801 129.05032361 C146.2873928 129.039861 169.64369579 129.02226307 193 129 C192.67 129.66 192.34 130.32 192 131 C129.3 131 66.6 131 2 131 C0.06115604 127.12231207 -0.24865542 125.81964113 -0.24050903 121.6975708 C-0.24325836 120.62347458 -0.24600769 119.54937836 -0.24884033 118.44273376 C-0.24164978 117.26957108 -0.23445923 116.09640839 -0.22705078 114.88769531 C-0.22734283 113.64840775 -0.22763489 112.40912018 -0.22793579 111.13227844 C-0.22678149 107.73789993 -0.21675359 104.34376493 -0.20278788 100.94942951 C-0.19028225 97.40068085 -0.18911015 93.85192892 -0.18673706 90.30316162 C-0.18052179 83.58485457 -0.16411036 76.86661264 -0.14403808 70.14833426 C-0.12168053 62.49906127 -0.11068601 54.84978515 -0.10064721 47.20048761 C-0.07974416 31.46695403 -0.04456729 15.73348542 0 0 Z " fill="#683623" transform="translate(209,343)"/>
<path d="M0 0 C3.0625 1.9375 3.0625 1.9375 5 5 C5.8441324 9.18578051 6.02602095 13.12147635 3.9375 16.9453125 C1.65838493 19.75350785 -0.31663528 21.76432894 -3.953125 22.2734375 C-8.24672199 22.46329043 -11.09582964 22.4342668 -14.5 19.625 C-18.10801646 15.83658272 -18.45472113 13.41927529 -18.421875 8.328125 C-17.8035186 4.91571376 -16.13637522 3.34344464 -13.60546875 1.09375 C-9.30555532 -1.83563141 -4.81098285 -1.18800102 0 0 Z " fill="#CFAF8C" transform="translate(111,99)"/>
<path d="M0 0 C1.57394531 -0.00386719 1.57394531 -0.00386719 3.1796875 -0.0078125 C10.8153969 0.09008121 10.8153969 0.09008121 13.16943359 1.81445312 C15.21890981 4.67990145 14.79122169 7.11076627 14.375 10.5 C12.50791495 12.86497439 11.05438569 14.16030715 8.375 15.5 C4.92266267 15.76599844 1.46144523 15.73153896 -2 15.75 C-3.43859375 15.7809375 -3.43859375 15.7809375 -4.90625 15.8125 C-5.83179688 15.81765625 -6.75734375 15.8228125 -7.7109375 15.828125 C-8.5570459 15.8374707 -9.4031543 15.84681641 -10.27490234 15.85644531 C-13.18127245 15.41562874 -14.5337115 14.54578717 -16.625 12.5 C-17.31690614 8.34856314 -17.17651131 6.32190671 -14.81640625 2.8046875 C-10.04348878 -0.64209501 -5.7360525 -0.15617965 0 0 Z " fill="#131515" transform="translate(258.625,106.5)"/>
<path d="M0 0 C1.14919922 -0.01998047 2.29839844 -0.03996094 3.48242188 -0.06054688 C4.58263672 -0.05990234 5.68285156 -0.05925781 6.81640625 -0.05859375 C7.8226001 -0.06044678 8.82879395 -0.0622998 9.86547852 -0.06420898 C12.4375 0.4375 12.4375 0.4375 14.26538086 2.24584961 C15.97416206 5.44096081 15.8256993 7.87900638 15.4375 11.4375 C14.24951172 13.12744141 14.24951172 13.12744141 12.4375 14.4375 C9.97314453 14.82568359 9.97314453 14.82568359 7.0703125 14.8359375 C5.49443359 14.84173828 5.49443359 14.84173828 3.88671875 14.84765625 C2.78972656 14.83605469 1.69273437 14.82445313 0.5625 14.8125 C-0.52675781 14.82410156 -1.61601562 14.83570312 -2.73828125 14.84765625 C-4.31802734 14.84185547 -4.31802734 14.84185547 -5.9296875 14.8359375 C-6.88987793 14.83255371 -7.85006836 14.82916992 -8.83935547 14.82568359 C-12.04874117 14.36818644 -13.95716328 13.33879384 -16.5625 11.4375 C-17.19140625 9.5 -17.19140625 9.5 -17.125 7.4375 C-17.12628906 6.756875 -17.12757813 6.07625 -17.12890625 5.375 C-15.04188509 -1.76405169 -5.78220416 -0.03579305 0 0 Z " fill="#030304" transform="translate(192.5625,68.5625)"/>
<path d="M0 0 C1.58651367 0.00193359 1.58651367 0.00193359 3.20507812 0.00390625 C11.0314217 0.0939217 11.0314217 0.0939217 13.3125 2.375 C13.61328125 4.43359375 13.61328125 4.43359375 13.625 6.8125 C13.64175781 7.59496094 13.65851563 8.37742188 13.67578125 9.18359375 C13.21699085 11.95113583 12.51062724 12.66621382 10.3125 14.375 C8.03173828 14.76318359 8.03173828 14.76318359 5.3828125 14.7734375 C4.42246094 14.77730469 3.46210938 14.78117188 2.47265625 14.78515625 C1.47105469 14.77355469 0.46945313 14.76195312 -0.5625 14.75 C-2.05330078 14.76740234 -2.05330078 14.76740234 -3.57421875 14.78515625 C-13.01150787 14.74725549 -13.01150787 14.74725549 -16.6875 11.375 C-17.3125 7.9375 -17.3125 7.9375 -16.6875 4.375 C-12.23041663 -1.04473637 -6.43781254 -0.15073129 0 0 Z " fill="#0F1111" transform="translate(192.6875,144.625)"/>
<path d="M0 0 C4.62 0 9.24 0 14 0 C12.23776224 9.18881119 12.23776224 9.18881119 10.9375 13.625 C9.8765993 17.44424251 9.4145271 21.06199259 9 25 C6.03 25 3.06 25 0 25 C0 16.75 0 8.5 0 0 Z " fill="#F6F6F6" transform="translate(303,288)"/>
<path d="M0 0 C5.12383146 2.64455817 9.95514443 5.48473762 14.625 8.875 C15.48351562 9.49117188 16.34203125 10.10734375 17.2265625 10.7421875 C17.81179688 11.48726563 18.39703125 12.23234375 19 13 C18.67 15.31 18.34 17.62 18 20 C12.06 20 6.12 20 0 20 C0 13.4 0 6.8 0 0 Z " fill="#FAFAFA" transform="translate(303,254)"/>
<path d="M0 0 C3.02429199 0.1159668 3.02429199 0.1159668 6.04858398 0.23193359 C6.09528087 15.30462621 6.13056148 30.37731322 6.15220833 45.45006275 C6.16252597 52.44842254 6.17659559 59.4467374 6.19946289 66.44506836 C6.22150733 73.19478157 6.23314232 79.94443841 6.23833847 86.69418907 C6.242043 89.27347233 6.24927667 91.85275293 6.2600441 94.43201637 C6.27449413 98.03570778 6.27656464 101.63920436 6.27563477 105.24291992 C6.28282532 106.31681976 6.29001587 107.3907196 6.29742432 108.49716187 C6.29467499 109.47732773 6.29192566 110.45749359 6.28909302 111.46736145 C6.2909366 112.32001996 6.29278019 113.17267847 6.29467964 114.05117512 C6.04858398 116.23193359 6.04858398 116.23193359 4.04858398 119.23193359 C3.38858398 118.90193359 2.72858398 118.57193359 2.04858398 118.23193359 C2.54358398 117.73693359 2.54358398 117.73693359 3.04858398 117.23193359 C3.15642128 115.73952839 3.19540545 114.24208709 3.20680237 112.74583435 C3.2214856 111.29233078 3.2214856 111.29233078 3.23646545 109.8094635 C3.24222092 108.73772385 3.24797638 107.66598419 3.25390625 106.56176758 C3.26875565 104.87905762 3.26875565 104.87905762 3.28390503 103.16235352 C3.31562957 99.43426666 3.3403206 95.70616703 3.36499023 91.97802734 C3.38555031 89.40112466 3.40654652 86.82422542 3.42796326 84.24732971 C3.47761991 78.14521433 3.52285976 72.04308068 3.56598562 65.94091612 C3.6153162 58.99540718 3.67024978 52.04994613 3.72566521 45.10448349 C3.83956046 30.81367849 3.946383 16.52282676 4.04858398 2.23193359 C1.09356958 2.57156564 1.09356958 2.57156564 -1.95141602 3.23193359 C-3.38779299 5.18356478 -3.38779299 5.18356478 -3.95141602 7.23193359 C-4.28141602 6.57193359 -4.61141602 5.91193359 -4.95141602 5.23193359 C-3.21953047 0.38265407 -3.21953047 0.38265407 0 0 Z " fill="#4C271A" transform="translate(399.951416015625,352.76806640625)"/>
<path d="M0 0 C10.56 0 21.12 0 32 0 C32 8.58 32 17.16 32 26 C21.44 26 10.88 26 0 26 C0 17.42 0 8.84 0 0 Z M2 2 C2 9.59 2 17.18 2 25 C4.31 25 6.62 25 9 25 C9.33 24.67 9.66 24.34 10 24 C11.4887186 23.91330568 12.981445 23.89296506 14.47265625 23.90234375 C15.28226807 23.90484131 16.09187988 23.90733887 16.92602539 23.90991211 C17.96106201 23.91901611 18.99609863 23.92812012 20.0625 23.9375 C23.341875 23.958125 26.62125 23.97875 30 24 C30 16.74 30 9.48 30 2 C21.89597867 1.52565835 21.89597867 1.52565835 18 3 C17.34 2.67 16.68 2.34 16 2 C13.62597499 1.92883618 11.24999323 1.91590915 8.875 1.9375 C5.471875 1.9684375 5.471875 1.9684375 2 2 Z " fill="#D9B31E" transform="translate(291,377)"/>
<path d="M0 0 C0.33 0 0.66 0 1 0 C1.0246519 4.82380802 1.04283693 9.64757967 1.05493164 14.47143555 C1.05997174 16.11369464 1.06680378 17.75594923 1.07543945 19.39819336 C1.08751926 21.75375479 1.09323139 24.10925709 1.09765625 26.46484375 C1.10281754 27.20339096 1.10797882 27.94193817 1.11329651 28.7028656 C1.1134925 30.46898088 1.06194719 32.23497146 1 34 C-1.05135597 36.05135597 -5.33732722 35.23352585 -8.1640625 35.28125 C-8.98949554 35.29965942 -9.81492859 35.31806885 -10.66537476 35.33703613 C-13.31850841 35.39596616 -15.9717098 35.44863361 -18.625 35.5 C-21.25685916 35.55156728 -23.88863652 35.60464563 -26.52035522 35.66296387 C-28.15977747 35.69927497 -29.79928985 35.73178186 -31.43887329 35.7598877 C-36.04304126 35.86156146 -40.45433581 36.25409131 -45 37 C-44 35 -44 35 -41.47998047 33.88720703 C-37.31823279 32.82618619 -33.59193773 32.74803758 -29.3203125 32.8046875 C-28.50754852 32.8075174 -27.69478455 32.81034729 -26.85739136 32.81326294 C-24.27977325 32.82439381 -21.70251181 32.84948485 -19.125 32.875 C-17.36979671 32.88503899 -15.61458794 32.89416323 -13.859375 32.90234375 C-9.57278074 32.92430985 -5.2864507 32.95879022 -1 33 C-1.00523682 32.03586182 -1.01047363 31.07172363 -1.01586914 30.07836914 C-1.03392118 26.51327436 -1.04543274 22.94818364 -1.05493164 19.38305664 C-1.0599714 17.83780234 -1.0668032 16.29255284 -1.07543945 14.74731445 C-1.08752076 12.53074971 -1.09323173 10.31424782 -1.09765625 8.09765625 C-1.10281754 7.4028566 -1.10797882 6.70805695 -1.11329651 5.99220276 C-1.11349277 4.3277067 -1.06189129 2.66334501 -1 1 C-0.67 0.67 -0.34 0.34 0 0 Z " fill="#98A6A5" transform="translate(251,278)"/>
<path d="M0 0 C3.609375 -0.020625 7.21875 -0.04125 10.9375 -0.0625 C12.07695068 -0.071604 13.21640137 -0.08070801 14.39038086 -0.09008789 C15.28120361 -0.09258545 16.17202637 -0.09508301 17.08984375 -0.09765625 C18.46450806 -0.10551147 18.46450806 -0.10551147 19.86694336 -0.11352539 C22 0 22 0 23 1 C23.09932153 2.69558726 23.13080007 4.39525747 23.1328125 6.09375 C23.13474609 7.63869141 23.13474609 7.63869141 23.13671875 9.21484375 C23.13285156 10.29894531 23.12898438 11.38304687 23.125 12.5 C23.13080078 14.12615234 23.13080078 14.12615234 23.13671875 15.78515625 C23.13542969 16.81511719 23.13414062 17.84507812 23.1328125 18.90625 C23.13168457 19.85822266 23.13055664 20.81019531 23.12939453 21.79101562 C23 24 23 24 22 25 C20.36527118 25.08700342 18.72685945 25.10701063 17.08984375 25.09765625 C16.199021 25.09515869 15.30819824 25.09266113 14.39038086 25.09008789 C13.25093018 25.08098389 12.11147949 25.07187988 10.9375 25.0625 C7.328125 25.041875 3.71875 25.02125 0 25 C0 16.75 0 8.5 0 0 Z M1 1 C1 8.26 1 15.52 1 23 C7.6 23 14.2 23 21 23 C21 15.74 21 8.48 21 1 C14.4 1 7.8 1 1 1 Z " fill="#98A5A4" transform="translate(266,288)"/>
<path d="M0 0 C1.62291962 0.00848969 1.62291962 0.00848969 3.27862549 0.01715088 C6.73307607 0.03953501 10.18648811 0.08973709 13.640625 0.140625 C15.98305793 0.16068728 18.32550713 0.17893852 20.66796875 0.1953125 C26.4092083 0.23940645 32.14984245 0.30633945 37.890625 0.390625 C37.890625 1.050625 37.890625 1.710625 37.890625 2.390625 C37.01405746 2.40275528 37.01405746 2.40275528 36.11978149 2.41513062 C30.05293525 2.50100064 23.98642241 2.60049575 17.91992188 2.70800781 C15.65402818 2.74635771 13.38807235 2.78119983 11.12207031 2.8125 C7.87021633 2.85802027 4.6187924 2.91603576 1.3671875 2.9765625 C0.34944244 2.98811371 -0.66830261 2.99966492 -1.71688843 3.01156616 C-2.65771271 3.03143585 -3.59853699 3.05130554 -4.56787109 3.07177734 C-5.81363419 3.09176285 -5.81363419 3.09176285 -7.08456421 3.1121521 C-9.33551114 3.21398042 -9.33551114 3.21398042 -11.109375 5.390625 C-11.50701763 7.37883813 -11.84712849 9.38006839 -12.109375 11.390625 C-13.099375 11.060625 -14.089375 10.730625 -15.109375 10.390625 C-15.40693691 7.117444 -15.51724187 5.06316822 -13.78808594 2.21191406 C-9.48022451 -0.71705479 -5.08384124 -0.09984743 0 0 Z " fill="#3D4343" transform="translate(231.109375,144.609375)"/>
<path d="M0 0 C2.31 0 4.62 0 7 0 C6.01 0.66 5.02 1.32 4 2 C3.01 1.67 2.02 1.34 1 1 C1.16298584 1.65250732 1.32597168 2.30501465 1.49389648 2.97729492 C2.13130878 6.78424216 2.12372133 10.51686345 2.09765625 14.36328125 C2.09553383 15.55125557 2.09553383 15.55125557 2.09336853 16.76322937 C2.08779457 19.27969219 2.07524693 21.79606431 2.0625 24.3125 C2.05748163 26.02408725 2.05291931 27.73567591 2.04882812 29.44726562 C2.03783368 33.63154508 2.02058707 37.81575719 2 42 C3.98 42 5.96 42 8 42 C6.25 44 6.25 44 4 46 C2.68 46 1.36 46 0 46 C0 30.82 0 15.64 0 0 Z " fill="#E34B49" transform="translate(70,80)"/>
<path d="M0 0 C7.86539012 -0.02537742 15.73076966 -0.04287846 23.59619141 -0.05493164 C26.27134113 -0.05939157 28.94643734 -0.06677832 31.62158203 -0.07543945 C35.46908241 -0.08758344 39.31654644 -0.0932463 43.1640625 -0.09765625 C44.35802643 -0.10281754 45.55199036 -0.10797882 46.78213501 -0.11329651 C47.90284393 -0.11337204 49.02355286 -0.11344757 50.17822266 -0.11352539 C51.65048813 -0.11685631 51.65048813 -0.11685631 53.15249634 -0.12025452 C56.1700399 0.00718105 59.03364551 0.4453517 62 1 C59.30341488 2.83367788 58.16153826 3.02443266 54.875 2.52734375 C50.66870153 1.95491402 46.76590374 2.17317612 42.5625 2.5 C28.05383655 3.45034295 13.51008775 2.59624941 -1 2 C-0.67 1.34 -0.34 0.68 0 0 Z " fill="#E64B48" transform="translate(81,79)"/>
<path d="M0 0 C1.42034546 0.24447876 1.42034546 0.24447876 2.86938477 0.49389648 C7.60930424 1.16737919 12.31067093 1.12492901 17.08984375 1.09765625 C18.03436905 1.0962413 18.97889435 1.09482635 19.95204163 1.09336853 C22.94722763 1.0878036 25.94233687 1.07525767 28.9375 1.0625 C30.97721246 1.05748046 33.01692609 1.05291835 35.05664062 1.04882812 C40.03778966 1.03784567 45.01888185 1.0206054 50 1 C47.44901565 3.63876861 45.40474507 4.22975833 41.86157227 4.38818359 C40.17996298 4.40795225 38.49808985 4.4103055 36.81640625 4.3984375 C35.92388657 4.40130768 35.03136688 4.40417786 34.11180115 4.40713501 C32.22646449 4.40917409 30.34110659 4.40365512 28.45581055 4.39111328 C25.57617632 4.37507617 22.69794964 4.39095734 19.81835938 4.41015625 C17.98437191 4.40817342 16.15038532 4.40432892 14.31640625 4.3984375 C13.02870079 4.40754654 13.02870079 4.40754654 11.71498108 4.4168396 C7.00271275 4.36165937 3.83005121 4.07086728 0 1 C0 0.67 0 0.34 0 0 Z " fill="#3A180E" transform="translate(281,414)"/>
<path d="M0 0 C0 0.33 0 0.66 0 1 C-1.299375 1.04125 -2.59875 1.0825 -3.9375 1.125 C-12.29528378 2.05802303 -18.63778171 7.87175053 -24 14 C-27.78613977 19.48337485 -27.69672927 25.53719625 -28 32 C-28.66 31.67 -29.32 31.34 -30 31 C-30.50207442 23.53861624 -30.32023657 17.31863477 -26 11 C-18.36788297 2.58699069 -11.27757807 -0.61266521 0 0 Z " fill="#46110F" transform="translate(109,84)"/>
<path d="M0 0 C0.66 0 1.32 0 2 0 C6 4.47058824 6 4.47058824 6 7 C9.3 7 12.6 7 16 7 C16 7.33 16 7.66 16 8 C-9.41 8 -34.82 8 -61 8 C-61 7.67 -61 7.34 -61 7 C-39.88 6.67 -18.76 6.34 3 6 C2.01 5.01 1.02 4.02 0 3 C0 2.01 0 1.02 0 0 Z " fill="#0E1010" transform="translate(158,349)"/>
<path d="M0 0 C12.54 0 25.08 0 38 0 C38 3.96 38 7.92 38 12 C37.34 11.67 36.68 11.34 36 11 C36 8.03 36 5.06 36 2 C24.45 2 12.9 2 1 2 C0.67 1.34 0.34 0.68 0 0 Z " fill="#B35C3B" transform="translate(239,398)"/>
<path d="M0 0 C12.21 0 24.42 0 37 0 C36.67 0.66 36.34 1.32 36 2 C24.78 2 13.56 2 2 2 C2 5.3 2 8.6 2 12 C1.34 12 0.68 12 0 12 C0 8.04 0 4.08 0 0 Z " fill="#B7603E" transform="translate(337,398)"/>
<path d="M0 0 C0.99 0 1.98 0 3 0 C2.67 0.99 2.34 1.98 2 3 C1.84586124 5.87438548 1.74252715 8.72898986 1.68359375 11.60546875 C1.66281265 12.44467361 1.64203156 13.28387848 1.62062073 14.14851379 C1.55525982 16.82809294 1.49630286 19.50776969 1.4375 22.1875 C1.39430198 24.00456737 1.35068727 25.82162488 1.30664062 27.63867188 C1.1995922 32.09234799 1.09828681 36.54612226 1 41 C0.34 40.67 -0.32 40.34 -1 40 C-1.02467759 34.62484067 -1.04284928 29.24971415 -1.05493164 23.87451172 C-1.05996737 22.04507879 -1.06679627 20.21564991 -1.07543945 18.38623047 C-1.08753824 15.76008102 -1.09323583 13.13398468 -1.09765625 10.5078125 C-1.10281754 9.68693146 -1.10797882 8.86605042 -1.11329651 8.02029419 C-1.11387171 2.22774341 -1.11387171 2.22774341 0 0 Z " fill="#78B8CA" transform="translate(42,189)"/>
<path d="M0 0 C0.88068649 0.00015106 1.76137299 0.00030212 2.66874695 0.00045776 C3.61570938 0.01078033 4.56267181 0.02110291 5.53833008 0.03173828 C6.51071121 0.03456818 7.48309235 0.03739807 8.48493958 0.04031372 C11.59270499 0.05151479 14.70018292 0.07661931 17.80786133 0.10205078 C19.91397696 0.11208067 22.02009711 0.12120651 24.1262207 0.12939453 C29.29104513 0.1514539 34.45565447 0.18598332 39.62036133 0.22705078 C39.62036133 0.55705078 39.62036133 0.88705078 39.62036133 1.22705078 C25.43036133 1.22705078 11.24036133 1.22705078 -3.37963867 1.22705078 C-4.03963867 2.54705078 -4.69963867 3.86705078 -5.37963867 5.22705078 C-6.87963867 6.97705078 -6.87963867 6.97705078 -8.37963867 8.22705078 C-9.03963867 8.22705078 -9.69963867 8.22705078 -10.37963867 8.22705078 C-10.37963867 11.52705078 -10.37963867 14.82705078 -10.37963867 18.22705078 C-10.70963867 18.22705078 -11.03963867 18.22705078 -11.37963867 18.22705078 C-12.00639193 8.28604767 -12.00639193 8.28604767 -9.56713867 4.16455078 C-6.28318945 1.25591004 -4.34703151 -0.02491136 0 0 Z " fill="#3D2F24" transform="translate(288.379638671875,362.77294921875)"/>
<path d="M0 0 C0.85722656 -0.00515625 1.71445313 -0.0103125 2.59765625 -0.015625 C4.9375 0.25 4.9375 0.25 7.9375 2.25 C7.9375 2.91 7.9375 3.57 7.9375 4.25 C9.0821875 4.1571875 9.0821875 4.1571875 10.25 4.0625 C12.9375 4.25 12.9375 4.25 14.75 5.75 C15.141875 6.245 15.53375 6.74 15.9375 7.25 C15.6075 8.24 15.2775 9.23 14.9375 10.25 C14.33421875 9.90066406 13.7309375 9.55132812 13.109375 9.19140625 C12.31015625 8.73636719 11.5109375 8.28132813 10.6875 7.8125 C9.89859375 7.36003906 9.1096875 6.90757813 8.296875 6.44140625 C3.85684199 4.1993366 0.14861036 4.1378889 -4.8125 4.1875 C-6.56820312 4.20103516 -6.56820312 4.20103516 -8.359375 4.21484375 C-9.25140625 4.22644531 -10.1434375 4.23804687 -11.0625 4.25 C-7.63427745 0.82177745 -4.80999613 -0.02901958 0 0 Z " fill="#EB4A45" transform="translate(107.0625,80.75)"/>
<path d="M0 0 C0.66 0 1.32 0 2 0 C1.67 0.99 1.34 1.98 1 3 C0.34 3 -0.32 3 -1 3 C-0.74438677 5.3431213 -0.40729228 7.67843403 0 10 C3.10950529 11.55475264 6.4044703 11.14199524 9.81640625 11.1328125 C10.58806625 11.13376923 11.35972626 11.13472595 12.1547699 11.13571167 C13.78636761 11.13639246 15.41796803 11.1345452 17.04956055 11.13037109 C19.55588821 11.12501413 22.06203725 11.13032319 24.56835938 11.13671875 C26.15104206 11.13605809 27.73372464 11.13477719 29.31640625 11.1328125 C30.07055313 11.13483673 30.82470001 11.13686096 31.60169983 11.13894653 C35.09231835 11.44218296 35.09231835 11.44218296 38 10 C38.07179964 8.48071962 38.08392007 6.95832518 38.0625 5.4375 C38.05347656 4.61121094 38.04445312 3.78492188 38.03515625 2.93359375 C38.02355469 2.29550781 38.01195312 1.65742188 38 1 C38.66 1.33 39.32 1.66 40 2 C40.05399736 3.45792884 40.09279177 4.91642712 40.125 6.375 C40.14820313 7.18710937 40.17140625 7.99921875 40.1953125 8.8359375 C40 11 40 11 38 13 C35.23821562 13.1998697 32.57889917 13.27978901 29.81640625 13.265625 C28.59944313 13.26849518 28.59944313 13.26849518 27.3578949 13.27142334 C25.6405303 13.27278542 23.92315541 13.26908738 22.20581055 13.26074219 C19.57642452 13.25005659 16.94772388 13.26062935 14.31835938 13.2734375 C12.65104016 13.27211564 10.98372137 13.26955269 9.31640625 13.265625 C8.52883438 13.26967346 7.74126251 13.27372192 6.92982483 13.27789307 C3.09350833 13.24494682 1.26742389 13.1782826 -2 11 C-2.36328125 8.90625 -2.36328125 8.90625 -2.3125 6.5 C-2.30863281 5.7059375 -2.30476563 4.911875 -2.30078125 4.09375 C-2 2 -2 2 0 0 Z " fill="#404C4D" transform="translate(45,253)"/>
<path d="M0 0 C1.98 0.99 1.98 0.99 4 2 C3.01 2.495 3.01 2.495 2 3 C2 18.51 2 34.02 2 50 C0 48 0 48 -0.24050903 45.93722534 C-0.23606781 45.08895172 -0.23162659 44.2406781 -0.22705078 43.36669922 C-0.22689972 42.40585419 -0.22674866 41.44500916 -0.22659302 40.45504761 C-0.21627045 39.41542877 -0.20594788 38.37580994 -0.1953125 37.3046875 C-0.1924826 36.24210724 -0.18965271 35.17952698 -0.18673706 34.08474731 C-0.17551639 30.68138501 -0.15040837 27.27828314 -0.125 23.875 C-0.11497264 21.57161838 -0.10584637 19.26823264 -0.09765625 16.96484375 C-0.07557093 11.30980655 -0.04207489 5.65492187 0 0 Z " fill="#C2623D" transform="translate(234,395)"/>
<path d="M0 0 C0.33 0 0.66 0 1 0 C1 10.23 1 20.46 1 31 C0.34 31 -0.32 31 -1 31 C-1.33 24.07 -1.66 17.14 -2 10 C-1.67 10 -1.34 10 -1 10 C-0.67 6.7 -0.34 3.4 0 0 Z " fill="#E84D46" transform="translate(146,125)"/>
<path d="M0 0 C1.11503906 0.00966797 2.23007813 0.01933594 3.37890625 0.02929688 C5.11720703 0.06700195 5.11720703 0.06700195 6.890625 0.10546875 C8.65212891 0.12577148 8.65212891 0.12577148 10.44921875 0.14648438 C13.34681798 0.18182095 16.24348927 0.23115896 19.140625 0.29296875 C19.140625 0.62296875 19.140625 0.95296875 19.140625 1.29296875 C18.43454102 1.34831787 17.72845703 1.40366699 17.00097656 1.46069336 C13.79723963 1.71380017 10.59393989 1.97207779 7.390625 2.23046875 C5.72386719 2.36098633 5.72386719 2.36098633 4.0234375 2.49414062 C2.41855469 2.6246582 2.41855469 2.6246582 0.78125 2.7578125 C-0.20327148 2.83636475 -1.18779297 2.91491699 -2.20214844 2.99584961 C-4.5127244 3.25420784 -6.62675383 3.66070155 -8.859375 4.29296875 C-8.859375 6.60296875 -8.859375 8.91296875 -8.859375 11.29296875 C-9.189375 11.29296875 -9.519375 11.29296875 -9.859375 11.29296875 C-10.25 5.3359375 -10.25 5.3359375 -9.859375 3.29296875 C-6.67767847 0.20496175 -4.34909389 -0.06656776 0 0 Z " fill="#4C5352" transform="translate(185.859375,68.70703125)"/>
<path d="M0 0 C0.99 0.495 0.99 0.495 2 1 C2.33 8.92 2.66 16.84 3 25 C2.01 25.33 1.02 25.66 0 26 C0 17.42 0 8.84 0 0 Z " fill="#BDE9EF" transform="translate(50,32)"/>
<path d="M0 0 C-0.75 7.625 -0.75 7.625 -3 11 C-2.67 8.03 -2.34 5.06 -2 2 C-9.92 2 -17.84 2 -26 2 C-26 1.67 -26 1.34 -26 1 C-8.14350797 -0.14806378 -8.14350797 -0.14806378 0 0 Z " fill="#3A4526" transform="translate(438,303)"/>
<path d="M0 0 C2.52588702 2.36292656 3.88820837 3.66462511 5 7 C5.025331 10.61871395 4.97267612 14.22300008 4.87304688 17.83984375 C4.79059318 22.71054341 4.79059318 22.71054341 7 27 C5.68 26.67 4.36 26.34 3 26 C3 20.06 3 14.12 3 8 C2.34 7.67 1.68 7.34 1 7 C0.59270772 4.67843403 0.25561323 2.3431213 0 0 Z " fill="#752323" transform="translate(126,95)"/>
<path d="M0 0 C1.32 0.33 2.64 0.66 4 1 C2.5459375 2.051875 2.5459375 2.051875 1.0625 3.125 C-3.25717675 7.31254546 -2.815016 12.44351509 -2.9921875 18.1484375 C-2.99476562 19.08945313 -2.99734375 20.03046875 -3 21 C-3.33 21 -3.66 21 -4 21 C-4.10845031 18.43635517 -4.18749744 15.87733721 -4.25 13.3125 C-4.28351563 12.59126953 -4.31703125 11.87003906 -4.3515625 11.12695312 C-4.42478439 7.11805482 -4.28590487 5.42830322 -1.984375 1.98046875 C-1.00210938 1.00013672 -1.00210938 1.00013672 0 0 Z " fill="#F0C612" transform="translate(86,134)"/>
<path d="M0 0 C1.45607397 4.4561727 0.00954181 6.83206143 -2 11 C-2.350625 11.78375 -2.70125 12.5675 -3.0625 13.375 C-4 15 -4 15 -6 16 C-7.0409066 17.64142963 -8.04504326 19.30712215 -9 21 C-9.66 20.67 -10.32 20.34 -11 20 C-9.7260411 17.96166576 -8.38938077 15.96147874 -7 14 C-6.34 14 -5.68 14 -5 14 C-4.9175 13.175 -4.835 12.35 -4.75 11.5 C-3.83552731 7.23246079 -2.07776822 3.80763106 0 0 Z " fill="#9A5236" transform="translate(386,377)"/>
<path d="M0 0 C0.66 0.33 1.32 0.66 2 1 C-2.46153846 7.92307692 -2.46153846 7.92307692 -5 10 C-5.66 10 -6.32 10 -7 10 C-7 11.65 -7 13.3 -7 15 C-7.33 15 -7.66 15 -8 15 C-8.34025361 11.33164074 -8.36623402 9.53463627 -6.25 6.4453125 C-5.5075 5.67960938 -4.765 4.91390625 -4 4.125 C-3.2575 3.34382813 -2.515 2.56265625 -1.75 1.7578125 C-1.1725 1.17773438 -0.595 0.59765625 0 0 Z " fill="#3A100F" transform="translate(76,123)"/>
<path d="M0 0 C0.33 0 0.66 0 1 0 C1 1.98 1 3.96 1 6 C1.66 6 2.32 6 3 6 C2.84660156 6.65355469 2.69320312 7.30710938 2.53515625 7.98046875 C1.86620406 11.75492159 1.64592703 15.48905996 1.4375 19.3125 C1.39431641 20.05306641 1.35113281 20.79363281 1.30664062 21.55664062 C1.20129568 23.37091464 1.10021684 25.1854355 1 27 C0.67 27 0.34 27 0 27 C0 18.09 0 9.18 0 0 Z " fill="#C5595A" transform="translate(64,128)"/>
<path d="M0 0 C0.66 0 1.32 0 2 0 C0.59505784 3.39527689 -0.69761694 5.30647023 -4 7 C-7.03156614 7.35125098 -9.97712336 7.44934653 -13 7 C-13.66 6.34 -14.32 5.68 -15 5 C-11.7 5.33 -8.4 5.66 -5 6 C-5 5.34 -5 4.68 -5 4 C-3.35 3.34 -1.7 2.68 0 2 C0 1.34 0 0.68 0 0 Z " fill="#BCA589" transform="translate(113,114)"/>
<path d="M0 0 C1.77174819 0.08723378 3.54247377 0.19541655 5.3125 0.3125 C6.29863281 0.37050781 7.28476563 0.42851563 8.30078125 0.48828125 C11.24384457 1.04622813 12.18182999 1.68540132 14 4 C13.67 4.99 13.34 5.98 13 7 C12.39671875 6.66226563 11.7934375 6.32453125 11.171875 5.9765625 C10.37265625 5.53054687 9.5734375 5.08453125 8.75 4.625 C7.96109375 4.18414062 7.1721875 3.74328125 6.359375 3.2890625 C4.26085803 2.14252177 2.1463923 1.05350448 0 0 Z " fill="#C13F3D" transform="translate(109,84)"/>
<path d="M0 0 C0 0.33 0 0.66 0 1 C-0.59167969 1.03738281 -1.18335937 1.07476562 -1.79296875 1.11328125 C-6.75243447 1.52589585 -9.73973702 2.32212041 -14 5 C-16.13671875 4.5859375 -16.13671875 4.5859375 -18 4 C-11.72912263 0.28392452 -7.24539726 -0.53449652 0 0 Z " fill="#571410" transform="translate(109,84)"/>
<path d="M0 0 C1.32 0.66 2.64 1.32 4 2 C2.3603125 2.8971875 2.3603125 2.8971875 0.6875 3.8125 C-1.91074129 5.29044697 -4.04349493 6.69822933 -6 9 C-5.69381595 5.32579134 -5.24228216 4.21864487 -2.4375 1.6875 C-1.633125 1.130625 -0.82875 0.57375 0 0 Z " fill="#E9C199" transform="translate(283,361)"/>
<path d="M0 0 C12.66970387 -0.18451025 12.66970387 -0.18451025 18 1 C14.17040067 3.61109045 11.1738461 2.86230768 6.75 2.125 C5.48671875 1.92132813 4.2234375 1.71765625 2.921875 1.5078125 C1.95765625 1.34023437 0.9934375 1.17265625 0 1 C0 0.67 0 0.34 0 0 Z " fill="#E34E4C" transform="translate(125,79)"/>
<path d="M0 0 C0.66 0 1.32 0 2 0 C1.67 2.64 1.34 5.28 1 8 C-0.65 8.33 -2.3 8.66 -4 9 C-3.34 7.68 -2.68 6.36 -2 5 C-1.34 5 -0.68 5 0 5 C0 3.35 0 1.7 0 0 Z " fill="#200504" transform="translate(81,116)"/>
<path d="M0 0 C0.66 0 1.32 0 2 0 C1.67 0.99 1.34 1.98 1 3 C0.34 3 -0.32 3 -1 3 C-0.67495741 7.82194643 -0.67495741 7.82194643 1.5625 11.9375 C2.036875 12.288125 2.51125 12.63875 3 13 C0.525 12.01 0.525 12.01 -2 11 C-2.05399736 9.54207116 -2.09279177 8.08357288 -2.125 6.625 C-2.15980469 5.40683594 -2.15980469 5.40683594 -2.1953125 4.1640625 C-2 2 -2 2 0 0 Z " fill="#2A4F59" transform="translate(45,253)"/>
<path d="M0 0 C5.28 0.33 10.56 0.66 16 1 C16 1.33 16 1.66 16 2 C11.05 2.33 6.1 2.66 1 3 C0.67 2.01 0.34 1.02 0 0 Z " fill="#595C48" transform="translate(382,291)"/>
<path d="M0 0 C2.97 0 5.94 0 9 0 C9.33 0.99 9.66 1.98 10 3 C6.7 2.34 3.4 1.68 0 1 C0 0.67 0 0.34 0 0 Z " fill="#58673E" transform="translate(374,334)"/>
<path d="M0 0 C1.98 0 3.96 0 6 0 C4.35 1.65 2.7 3.3 1 5 C0.67 3.35 0.34 1.7 0 0 Z " fill="#D0EDF0" transform="translate(50,236)"/>
<path d="M0 0 C0.99 0 1.98 0 3 0 C2.690625 0.53625 2.38125 1.0725 2.0625 1.625 C0.82172561 4.3984957 0.4090325 7.00042837 0 10 C-0.33 10 -0.66 10 -1 10 C-1.125 2.25 -1.125 2.25 0 0 Z " fill="#85D7E7" transform="translate(42,189)"/>
<path d="M0 0 C0.66 0.33 1.32 0.66 2 1 C1.67 2.32 1.34 3.64 1 5 C-0.65 5.33 -2.3 5.66 -4 6 C-2.84826645 3.53199953 -1.95216435 1.95216435 0 0 Z " fill="#343534" transform="translate(21,22)"/>
</svg>
